<?xml version="1.0" encoding="utf-8"?>
<!-- Generator: Adobe Illustrator 19.0.0, SVG Export Plug-In . SVG Version: 6.00 Build 0)  -->
<svg version="1.1" id="Capa_1" xmlns="http://www.w3.org/2000/svg" xmlns:xlink="http://www.w3.org/1999/xlink" x="0px" y="0px"
	 viewBox="0 0 452.9 554.6" style="enable-background:new 0 0 452.9 554.6;" xml:space="preserve">
<style type="text/css">
	.st0{fill:#FFFFFF;}
</style>
<g>
	<path class="st0" d="M313.7,72.2c-5.9,8-11.4,15.8-17.1,23.3c-4.7,6.2-4.9,6.4-11.6,2.9c-16.7-8.6-33.3-17.6-50-26.4
		c-1-0.5-1.9-1-2.9-1.5c-2.2,4.7-1.5,8.1,2.4,10.3c14.9,8.1,29.9,16.1,45,23.8c8.1,4.1,16.6,7.5,25.6,11.5
		c-2.6,3.7-5.1,7.3-7.7,10.9c-18.7,26.5-37.7,52.9-56.1,79.6c-18.4,26.5-34.3,54.5-49.6,82.9c-12.7,23.5-25.6,46.9-38.4,70.4
		c-15.7,28.8-31.4,57.7-47.1,86.5c-6.3,11.5-8.7,24.1-11.6,36.6c-0.5,2.1-0.1,4.5,0.3,6.7c1.1,6-3,9.6-6.1,13.5
		c-12.9,16.5-26,32.9-39,49.4c-0.4,0.6-0.6,1.3-0.9,2c-0.4-0.3-0.8-0.6-1.1-1c3.2-5.9,6.4-11.7,9.6-17.6
		c13.5-24.9,27-49.8,40.7-74.7c1.9-3.5,1.3-5.9-1.3-8.6c-22.8-23.7-41.2-50.4-55.4-80.1c-16.9-35.3-27-72.7-33.4-111.2
		c-8.1-49.1-9.9-98.4-5.9-147.9c0.2-2.9,0.7-5.7,0.9-8.6c0.2-3.3,1.8-4.8,5.1-5.2c10.5-1.2,21.1-2.4,31.6-4
		c49.9-7.4,96.8-23.4,140.2-49.1c13.1-7.7,25.5-16.7,38.1-25.3c2.4-1.7,4.2-2.3,6.9-0.3c19.7,15.2,40.7,28.1,63.1,38.8
		C296.2,64,304.6,67.9,313.7,72.2z M96.8,280.8c2-0.1,3.6-0.2,5.1-0.2c23.5,0,47,0,70.5,0.1c3,0,4.6-1,6-3.7
		c6.4-12.3,13.2-24.4,19.8-36.6c0.9-1.7,1.7-3.5,2.7-5.6c-1.4-0.2-2.3-0.4-3.1-0.4c-6.7,0-13.5,0.1-20.2,0.1
		c-28.2,0-56.5,0-84.7,0.1c-3.5,0-5.4-0.7-5.7-4.8c-1.3-18.2-2.8-36.3-4.3-54.5c-0.2-2.9,1.5-3.5,3.8-4
		c33.3-7.3,65.5-17.9,96.5-32.2c11.8-5.4,23.1-11.8,34.7-17.6c2.4-1.2,3.2-3,3.2-5.7c-0.1-16,0.1-32,0.1-48c0-0.8-0.2-1.7-0.3-2.5
		c-0.6,0-1-0.2-1.3,0c-1.1,0.6-2.2,1.2-3.2,1.8c-21.1,14.2-43.6,25.7-67,35.6c-35.1,14.8-71.3,25.1-109.2,29.6
		c-2.2,0.3-2.9,1.1-3,3.3c-1.4,30.4-1.3,60.8,2.7,90.9c3,22.9,7.1,45.7,12.2,68.2c9.3,40.8,26,78.3,51.6,111.7
		c2.8,3.6,3.4,3.7,5.5-0.4c6.6-12.6,13.1-25.3,19.8-37.9c1.4-2.6,1.4-4.7-0.2-7.2c-14.1-22.7-23.5-47.4-30.3-73.1
		C97.6,285.7,97.3,283.5,96.8,280.8z"/>
	<path class="st0" d="M345.9,247.6c1.3,0.2,2,0.4,2.7,0.4c13.6,0,27.2-0.1,40.9,0c2.8,0,3.2-1.4,3.6-3.6c4.6-30.6,6.2-61.4,5.5-92.3
		c-0.1-5.4-0.5-10.7-0.4-16.1c0-2.7-1-3.4-3.7-3.9c-15.9-3-31.8-6.3-47.7-9.5c-0.6-0.1-1.1-0.5-1.9-0.9c1.9-3.8,3.8-7.4,5.6-11.1
		c3-6,6-12.1,8.9-18.2c1.1-2.3,2.3-3,5-2.5c19.8,3.3,39.7,6.5,59.5,9.6c7.8,1.2,8,1,8.7,8.8c2.2,26.6,2.7,53.1,1.7,79.8
		c-1,30.2-4.5,60-10.2,89.6c-6.7,34.8-16.9,68.6-33.1,100.4c-9.6,18.9-21,36.6-33.9,53.4c-3,3.9-5.9,5.6-11.1,4
		c-10-3.2-20.2-5.7-30.3-8.5c-0.3-0.1-0.6-0.4-1.2-0.8c20.6-20.7,36.4-44.7,48.9-70.9c2.4-5.2,4.3-10.6,6.4-16c0.2-0.4,0-1,0-1.8
		c-1.4-0.1-2.6-0.2-3.8-0.2c-14,0-28,0.1-42-0.1c-3.7-0.1-5.7,1.3-7.2,4.6c-7.1,15.2-15.6,29.8-26.8,42.3
		c-9.7,10.9-20.1,21.3-31.3,30.5c-13.8,11.3-28.7,21.3-43.2,31.6c-1,0.7-3.4,0.4-4.5-0.4c-10.5-7.2-20.8-14.7-31.2-22.1
		c-4.1-2.9-4.1-3-7.1,0.8c-6.1,7.7-12.2,15.5-18.3,23.2c-2.8,3.5-3.3,3.4-7-0.1c3-4.1,6-8.4,9.2-12.5
		c29.5-38.1,59.3-76.1,84.5-117.3c14.6-23.8,27.9-48.5,41.1-73.2c13.6-25.4,26.4-51.3,39.5-77c1.2-2.3,2.4-2.9,5-2.1
		c7,2.1,14.2,4.1,21.3,5.8c3,0.7,4.2,2.2,4,5.2c-1.6,20-3.1,40.1-4.6,60.1C347,240,346.4,243.6,345.9,247.6z"/>
	<path class="st0" d="M299.9,445c1.1,9.9,2.2,18.9,3,27.9c1.2,13.4,1,13.3-9.8,21.4c-24.2,18.2-49.6,34.5-75.6,49.9
		c-2.3,1.4-4.3,1.6-6.7,0.3c-22.4-13.2-44.5-26.8-65.3-42.4c-6.7-5-13.3-10.1-20.1-15.1c-2.7-2-3-4.1-1-6.6
		c5.5-7.1,10.9-14.3,16.4-21.4c1.9-2.6,3.8-1,5.5,0.2c7.5,5.2,14.8,10.7,22.3,15.8c14,9.5,28.1,18.7,42.1,28.1
		c2.4,1.6,4.3,1.5,6.8,0c24.7-15.7,49.3-31.5,72-50C292.5,450.5,295.9,448,299.9,445z"/>
	<path class="st0" d="M393,0c-30,59.2-59.6,117.8-89.3,176.4c-0.1,0-0.3,0-0.4,0c0.4-2.4,0.7-4.9,1.3-7.3
		c3.9-14.9,5.3-29.9,2.8-45.3c-1.1-6.4,0.4-11.7,4.7-17c8.1-10,15.2-20.7,23-31c18.8-24.9,37.7-49.8,56.6-74.6
		C392,0.9,392.3,0.7,393,0z"/>
	<path class="st0" d="M313.2,447.2c14.2,14.9,28.4,29.9,43.2,45.5c-7.7,1-14.5,1.8-21.3,2.6c-0.9,0.1-1.7,0.2-2.6,0.3
		c-11.2,1.4-8.7,2.2-11.2-7.8c-3-12-5.4-24.1-8.1-36.2c-0.3-1.3-0.5-2.6-0.7-4C312.7,447.5,312.9,447.3,313.2,447.2z"/>
	<path class="st0" d="M401.9,460.9c-15.6-3.4-30.2-6.7-45.5-10.1c1.2-0.5,2-0.9,2.8-1.1c11.5-3.4,23-6.6,34.5-10.1
		c2.9-0.9,4.3-0.6,4.8,2.8C399.2,448.3,400.6,454.1,401.9,460.9z"/>
	<path class="st0" d="M417.7,501.9c11.5,6.3,23,12.6,35.2,19.3c-5.7,3.6-10.5,6.8-15.5,9.8c-0.5,0.3-2.1-0.2-2.5-0.7
		c-6.2-9-12.4-18-18.5-27.1C416.8,502.7,417.3,502.3,417.7,501.9z"/>
	<line class="st0" x1="221.1" y1="73.4" x2="230.9" y2="75.1"/>
	<line class="st0" x1="244.3" y1="101.4" x2="254.1" y2="103.1"/>
	<line class="st0" x1="221.1" y1="73.4" x2="230.9" y2="75.1"/>
</g>
</svg>
