<svg viewBox="0 0 960 500" xmlns="http://www.w3.org/2000/svg">
  <g class="map-bg">
    <path d="M793.5,244.2L789.2,255.0L774.0,254.2L771.6,247.3L793.5,244.2Z M855.9,253.6L855.9,262.7L829.2,252.0L855.9,253.6Z M773.1,260.9L760.6,259.4L773.1,260.9Z M799.6,251.2L813.8,247.7L800.4,249.7L809.2,251.1L801.2,257.8L799.6,251.2Z M749.2,247.5L761.9,258.2L734.5,243.3L749.2,247.5Z M797.9,262.0L791.3,262.5L797.9,262.0Z M808.1,261.6L799.5,262.2L808.1,261.6Z M829.0,255.0L820.9,254.4L829.0,255.0Z"/>
    <path d="M752.2,241.3L758.1,248.1L752.2,241.3Z M787.1,243.2L798.0,242.8L785.5,248.0L772.4,247.8L787.1,243.2Z"/>
    <path d="M294.6,274.7L294.5,265.3L305.6,263.5L326.8,275.8L299.3,282.7L294.6,274.7Z"/>
    <path d="M687.5,197.2L700.7,210.3L739.6,209.5L727.7,218.7L715.7,211.6L717.6,219.2L694.1,227.9L686.7,238.7L674.4,218.3L661.7,216.2L687.5,197.2Z"/>
    <path d="M690.4,200.8L676.4,190.3L711.6,171.5L759.9,186.4L799.6,176.6L788.0,173.5L802.3,162.2L839.2,173.3L828.1,184.6L793.9,190.9L807.2,193.9L797.8,198.0L804.4,208.9L774.1,221.3L760.8,216.6L747.1,219.5L736.4,207.3L709.3,209.6L690.4,200.8Z M776.0,222.1L769.8,223.8L776.0,222.1Z"/>
    <path d="M571.3,204.3L575.5,200.7L571.3,204.3Z"/>
    <path d="M570.9,236.8L581.0,229.1L607.9,238.9L585.3,245.3L570.9,236.8Z"/>
    <path d="M575.8,243.6L555.6,244.0L544.5,237.9L568.6,232.9L575.8,243.6Z"/>
    <path d="M603.9,240.9L590.8,252.4L589.3,246.1L603.9,240.9Z"/>
    <path d="M575.2,243.6L591.7,244.5L585.1,256.4L570.4,251.4L575.2,243.6Z"/>
    <path d="M573.2,266.2L574.0,274.2L573.2,266.2Z"/>
    <path d="M567.8,263.1L561.3,251.5L584.6,256.5L587.7,264.7L567.8,263.1Z"/>
    <path d="M575.4,201.8L577.7,194.9L592.9,194.2L575.4,201.8Z"/>
    <path d="M610.5,234.3L607.9,238.9L593.7,235.2L610.5,234.3Z"/>
    <path d="M335.8,245.4L325.6,243.3L335.8,245.4Z"/>
    <path d="M329.4,247.3L320.6,247.4L319.9,238.1L329.4,247.3Z"/>
    <path d="M822.3,191.8L811.7,189.1L827.0,183.8L822.3,191.8Z"/>
    <path d="M456.5,210.0L434.5,220.5L456.5,210.0Z"/>
    <path d="M251.5,234.5L246.2,231.8L258.3,228.9L251.5,234.5Z"/>
    <path d="M529.7,245.2L512.0,257.0L515.5,247.0L529.7,245.2Z"/>
    <path d="M529.7,245.2L562.4,245.1L559.4,268.9L512.7,258.1L529.7,245.2Z"/>
    <path d="M542.9,166.2L555.0,155.3L567.3,161.9L542.9,166.2Z"/>
    <path d="M524.0,291.4L511.3,274.4L546.8,274.8L535.9,275.9L533.3,291.2L524.0,291.4Z"/>
    <path d="M533.3,285.5L563.1,281.8L567.6,289.0L552.3,299.5L532.4,301.6L523.9,291.5L533.3,285.5Z"/>
    <path d="M630.4,214.2L639.5,218.3L621.6,226.6L630.4,214.2Z"/>
    <path d="M669.2,188.9L657.4,194.0L629.3,186.9L629.3,179.9L669.2,188.9Z"/>
    <path d="M712.9,171.5L694.0,185.2L662.6,188.2L636.1,178.8L619.8,186.1L613.9,180.7L621.5,176.1L603.9,173.0L663.8,157.1L712.9,171.5Z"/>
    <path d="M669.2,188.9L680.4,193.9L661.4,194.7L669.2,188.9Z"/>
    <path d="M550.9,156.5L536.1,155.5L550.9,156.5Z"/>
    <path d="M791.2,170.0L799.6,176.6L759.9,186.4L714.0,172.0L743.7,164.9L791.2,170.0Z"/>
    <path d="M714.2,171.4L663.8,157.1L642.7,160.7L643.7,167.9L606.6,168.7L607.7,187.1L586.6,183.0L577.5,179.5L587.0,170.5L552.9,151.7L564.2,136.7L555.9,117.7L562.2,112.7L589.4,120.8L564.9,122.7L579.8,134.0L597.8,127.2L595.5,117.1L662.1,119.0L657.7,107.5L670.8,99.1L676.4,117.9L663.9,124.0L672.2,126.0L690.8,121.2L676.7,115.2L679.3,99.6L701.6,111.6L694.8,95.9L758.1,72.5L783.7,83.9L760.2,99.8L960.0,115.9L960.0,129.9L945.2,131.1L958.8,137.6L916.3,145.1L897.8,167.7L898.0,151.3L921.7,138.1L855.7,149.6L840.5,158.6L857.1,162.2L853.8,172.8L835.1,184.3L829.2,180.2L839.2,173.3L809.6,161.6L794.3,170.6L743.8,164.9L714.2,171.4Z M540.7,159.7L532.3,159.5L540.7,159.7Z M569.7,177.6L577.7,179.2L569.7,177.6Z M0.0,129.9L0.0,115.9L27.6,126.5L0.0,129.9Z M0.0,107.8L6.8,106.7L0.0,107.8Z M860.1,159.8L866.0,172.5L858.9,178.1L860.1,159.8Z M617.1,104.2L633.7,108.9L617.1,104.2Z M632.0,90.3L664.1,78.9L632.0,90.3Z M862.6,97.2L852.7,96.7L862.6,97.2Z M882.2,87.8L869.5,87.3L882.2,87.8Z M867.6,85.7L845.0,86.7L867.6,85.7Z M761.1,66.7L744.7,70.4L761.1,66.7Z M729.7,56.7L722.3,55.6L729.7,56.7Z M746.4,63.5L727.6,59.6L746.4,63.5Z M645.9,49.3L637.9,50.7L645.9,49.3Z M617.8,50.1L604.3,53.7L617.8,50.1Z M625.5,47.7L633.9,49.5L625.5,47.7Z M740.7,50.0L723.8,53.6L740.7,50.0Z M647.4,48.7L654.6,48.3L647.4,48.7Z"/>
    <path d="M519.5,167.7L530.2,170.6L519.5,167.7Z"/>
    <path d="M544.8,150.9L555.2,146.9L544.8,150.9Z"/>
    <path d="M552.9,151.8L535.9,155.1L552.9,151.8Z"/>
    <path d="M535.0,115.7L512.5,134.6L511.1,148.2L494.6,148.6L493.6,138.9L528.4,114.1L562.4,113.7L535.0,115.7Z M545.1,71.9L535.6,73.7L545.1,71.9Z M533.9,66.3L508.5,59.7L533.9,66.3Z M552.5,55.5L527.4,55.0L552.5,55.5Z"/>
    <path d="M557.2,115.8L563.3,138.0L537.1,143.6L547.8,130.2L535.0,115.7L557.2,115.8Z"/>
    <path d="M766.7,229.3L753.2,217.5L768.0,219.4L761.6,223.1L771.9,231.9L759.3,238.0L766.7,229.3Z"/>
    <path d="M766.7,229.3L755.0,234.8L754.5,230.1L766.7,229.3Z"/>
    <path d="M630.1,213.2L617.5,215.5L630.1,213.2Z"/>
    <path d="M590.8,184.8L604.5,187.0L590.8,184.8Z"/>
    <path d="M600.0,186.9L614.4,188.9L600.0,186.9Z"/>
    <path d="M752.3,218.1L766.4,229.6L749.0,225.2L752.3,218.1Z"/>
    <path d="M693.9,185.3L664.6,189.7L693.9,185.3Z"/>
    <path d="M600.0,186.9L604.0,191.3L600.0,186.9Z"/>
    <path d="M510.7,201.1L546.7,203.1L546.6,221.6L507.4,214.8L510.7,201.1Z"/>
    <path d="M510.7,201.1L505.4,205.9L502.9,194.7L510.7,201.1Z"/>
    <path d="M541.0,173.9L559.0,180.1L541.0,182.1L534.0,177.7L541.0,173.9Z"/>
    <path d="M541.0,173.9L522.9,176.1L541.0,173.9Z"/>
    <path d="M540.1,171.6L524.9,173.0L540.1,171.6Z"/>
    <path d="M460.7,158.0L463.1,164.7L452.9,166.1L460.7,158.0Z"/>
    <path d="M535.9,187.7L551.0,186.7L540.2,188.4L541.9,195.6L535.9,187.7Z M550.2,197.5L542.7,197.5L550.2,197.5Z"/>
    <path d="M567.8,263.1L568.5,269.7L551.2,275.5L539.0,273.3L543.9,265.2L559.4,268.9L557.0,261.8L567.8,263.1Z"/>
    <path d="M452.6,238.2L444.5,237.4L452.6,238.2Z"/>
    <path d="M444.5,237.4L443.4,232.3L455.3,232.5L459.6,238.3L444.5,237.4Z"/>
    <path d="M449.4,240.4L459.9,243.9L449.4,240.4Z"/>
    <path d="M541.0,234.7L553.2,242.9L523.1,246.9L520.6,239.9L541.0,234.7Z"/>
    <path d="M541.0,234.7L546.6,218.7L578.4,218.7L582.9,224.6L570.9,236.8L568.6,232.9L541.0,234.7Z"/>
    <path d="M595.0,232.2L577.4,230.0L578.6,225.9L595.0,232.2Z"/>
    <path d="M599.4,194.4L604.1,207.7L583.4,200.8L599.4,194.4Z"/>
    <path d="M458.7,235.8L472.8,236.8L472.6,242.8L459.8,243.9L458.7,235.8Z"/>
    <path d="M447.3,229.2L465.3,228.2L462.4,214.1L491.3,222.9L464.0,235.8L447.3,229.2Z"/>
    <path d="M489.6,233.6L484.3,241.4L489.6,233.6Z"/>
    <path d="M543.9,265.2L542.4,274.9L511.4,274.3L512.8,258.5L543.9,265.2Z"/>
    <path d="M516.4,179.0L524.0,176.8L516.4,179.0Z"/>
    <path d="M547.4,275.1L558.3,281.6L535.2,288.8L535.9,275.9L547.4,275.1Z"/>
    <path d="M547.4,275.1L561.1,272.0L568.0,278.4L558.3,281.6L547.4,275.1Z"/>
    <path d="M682.6,195.6L669.5,215.0L644.6,214.1L642.3,206.5L682.6,195.6Z"/>
    <path d="M550.2,186.1L539.7,181.8L556.2,182.3L550.2,186.1Z"/>
    <path d="M754.4,233.7L747.4,231.1L744.4,235.5L751.5,242.0L742.1,238.5L741.4,221.9L759.4,225.4L754.4,233.7Z"/>
    <path d="M288.6,222.1L281.4,224.0L288.6,222.1Z"/>
    <path d="M288.6,222.1L297.8,223.7L288.6,222.1Z"/>
    <path d="M517.5,231.7L519.9,217.2L544.0,222.4L534.5,237.3L521.3,239.5L517.5,231.7Z"/>
    <path d="M467.1,214.1L456.9,208.4L476.8,202.9L474.1,197.9L502.9,194.7L511.9,216.4L488.9,223.1L467.1,214.1Z"/>
    <path d="M565.6,288.7L560.6,271.0L574.1,274.2L572.3,266.2L588.0,264.6L565.6,288.7Z"/>
    <path d="M726.9,218.7L743.1,210.1L749.8,219.2L739.6,223.8L742.8,236.1L726.9,218.7Z"/>
    <path d="M726.9,218.7L717.9,219.2L715.7,211.6L726.9,218.7Z"/>
    <path d="M678.8,194.6L656.5,206.6L642.3,206.5L643.4,197.0L678.8,194.6Z"/>
    <path d="M527.1,183.9L522.1,179.5L531.6,180.1L527.1,183.9Z"/>
    <path d="M561.3,251.5L570.7,244.2L570.4,251.4L561.3,251.5Z"/>
    <path d="M279.7,221.8L253.5,218.8L279.7,221.8Z"/>
    <path d="M551.0,173.3L560.4,177.0L551.0,173.3Z"/>
    <path d="M643.4,197.0L623.8,194.0L619.8,186.1L636.2,184.1L657.7,192.9L643.4,197.0Z"/>
    <path d="M575.0,201.9L584.8,202.6L576.0,207.6L575.0,201.9Z"/>
    <path d="M715.0,209.7L693.4,208.0L715.0,209.7Z"/>
    <path d="M515.5,247.0L509.6,255.5L503.2,250.8L515.5,247.0Z"/>
    <path d="M489.6,233.6L480.4,229.6L491.3,222.9L519.9,217.2L516.3,230.8L489.6,233.6Z"/>
    <path d="M486.4,233.4L465.3,235.4L478.1,228.8L486.4,233.4Z"/>
    <path d="M479.6,234.4L484.3,241.4L479.6,234.4Z"/>
    <path d="M443.4,232.3L435.4,232.7L443.4,232.3Z"/>
    <path d="M319.9,238.1L305.2,249.1L284.3,237.2L293.3,232.9L319.9,238.1Z"/>
    <path d="M855.9,253.6L881.8,264.8L855.9,262.7L855.9,253.6Z M886.4,256.0L875.5,257.9L886.4,256.0Z M888.4,255.9L882.2,253.6L888.4,255.9Z"/>
    <path d="M571.6,204.8L578.4,218.7L546.6,218.7L546.9,203.7L571.6,204.8Z"/>
    <path d="M618.6,223.1L619.3,228.0L595.9,232.2L595.5,225.4L618.6,223.1Z"/>
    <path d="M456.8,210.6L467.1,214.1L465.3,228.2L435.9,227.8L434.8,219.7L456.8,210.6Z"/>
    <path d="M435.3,231.7L443.2,231.2L435.3,231.7Z"/>
    <path d="M342.1,461.7L419.9,443.2L383.9,430.7L453.1,391.9L583.8,388.9L623.4,372.7L665.7,379.5L659.3,402.8L705.3,377.1L840.9,373.6L934.1,393.5L908.2,413.4L925.9,433.9L901.8,447.3L960.0,461.7L960.0,461.7L0.0,461.7L0.0,461.7L65.3,461.7L15.1,461.7L86.5,451.3L58.1,423.3L296.6,401.8L300.1,376.9L327.2,364.2L305.0,378.0L317.4,408.7L256.3,432.1L342.1,461.7Z M321.9,445.6L301.9,446.5L321.9,445.6Z M389.6,438.6L381.5,437.6L389.6,438.6Z M302.0,432.3L288.5,439.8L302.0,432.3Z M339.9,445.5L365.5,440.1L339.9,445.5Z M225.3,398.1L207.1,396.9L225.3,398.1Z M289.4,399.5L278.9,395.1L292.3,383.3L298.1,395.8L289.4,399.5Z M29.3,461.7L21.6,461.7L29.3,461.7Z M51.8,457.8L42.7,456.0L51.8,457.8Z M401.0,443.2L394.2,441.6L401.0,443.2Z M53.8,438.8L41.8,438.4L53.8,438.8Z M931.4,425.7L923.1,426.2L931.4,425.7Z M159.3,405.8L151.1,405.3L159.3,405.8Z M140.1,403.9L150.0,406.5L140.1,403.9Z"/>
    <path d="M371.0,129.8L365.1,144.9L351.4,142.9L337.4,126.8L346.7,123.4L336.1,123.0L346.8,120.8L336.7,121.4L346.3,119.8L334.3,109.2L342.2,104.6L285.2,69.7L358.9,38.3L449.7,43.4L424.4,51.5L438.0,52.7L419.3,79.0L429.4,91.4L406.1,98.1L422.7,109.7L402.0,110.1L420.9,111.6L371.0,129.8Z M361.3,38.3L352.7,38.3L361.3,38.3Z M412.5,108.8L405.0,110.0L412.5,108.8Z M421.5,101.4L414.7,99.6L421.5,101.4Z M421.5,100.0L414.4,99.0L421.5,100.0Z"/>
    <path d="M940.7,316.8L923.9,322.1L940.3,311.7L940.7,316.8Z M951.9,310.0L945.6,313.1L940.5,301.0L951.9,310.0Z"/>
    <path d="M925.4,281.7L917.3,278.5L925.4,281.7Z"/>
    <path d="M598.0,278.9L611.4,266.7L605.7,285.8L597.4,285.9L598.0,278.9Z"/>
    <path d="M817.5,239.8L805.1,240.2L814.6,236.3L817.5,239.8Z M806.1,224.0L810.8,232.4L799.7,228.3L806.1,224.0Z M799.1,235.3L792.5,238.4L799.1,235.3Z"/>
    <path d="M698.3,240.1L693.3,236.3L698.3,240.1Z"/>
    <path d="M805.1,214.2L801.9,218.8L805.1,214.2Z"/>
    <path d="M441.2,125.4L430.0,135.2L414.6,128.4L441.2,125.4Z"/>
  </g>
  <g class="map-countries">
    <path data-country="Alemania" d="M516.8,172.2L514.7,174.9L500.3,174.7L501.9,171.8L496.9,170.7L495.8,165.6L499.3,161.3L506.2,161.6L503.1,158.4L516.6,160.1L519.9,167.2L512.2,168.9L516.8,172.2Z"/>
    <path data-country="Arabia Saudita" d="M615.5,214.5L627.2,217.6L626.6,221.6L594.1,226.9L572.2,209.3L581.3,205.5L578.6,203.9L587.7,203.1L609.3,208.7L615.5,214.5Z"/>
    <path data-country="Argentina" d="M300.8,282.6L312.5,281.3L326.0,286.2L323.7,289.5L336.9,287.8L325.6,294.6L326.5,307.3L306.3,312.2L310.3,315.8L299.8,322.1L304.6,326.1L296.0,330.4L297.5,335.7L288.1,334.8L283.8,330.3L290.3,319.3L287.6,315.5L293.8,300.7L291.8,295.8L300.8,282.6Z M297.0,341.3L297.0,336.3L306.3,341.0L297.0,341.3Z"/>
    <path data-country="Australia" d="M830.8,296.3L789.3,301.7L781.8,287.7L784.6,287.9L783.9,281.3L803.0,277.7L816.2,269.5L825.9,271.4L828.2,267.4L834.0,267.0L832.0,265.6L844.2,266.6L841.3,271.0L854.7,274.9L860.1,264.9L870.2,276.8L888.5,287.3L888.2,295.4L880.0,306.3L870.4,309.2L866.5,306.9L857.1,307.8L848.2,300.5L844.9,302.4L847.4,297.8L842.6,302.0L830.8,296.3Z M874.7,316.7L869.4,317.3L865.9,311.9L875.2,312.2L874.7,316.7Z M848.3,303.3L844.1,303.5L848.3,303.3Z M830.8,266.0L827.6,265.7L830.8,266.0Z"/>
    <path data-country="Austria" d="M525.2,172.5L518.8,177.1L505.4,175.3L525.2,172.5Z"/>
    <path data-country="Brasil" d="M326.4,294.0L336.9,287.8L331.0,281.8L325.4,281.4L324.4,272.9L306.7,266.8L305.6,263.5L291.6,265.4L291.9,263.2L287.5,264.0L282.6,260.5L285.6,257.1L293.4,256.0L293.7,247.6L305.3,249.1L311.0,246.9L307.2,244.0L312.3,245.1L319.4,242.7L323.1,248.4L338.8,247.0L342.6,243.8L347.0,248.4L339.4,252.2L344.4,251.3L347.6,253.7L355.1,251.0L361.1,252.4L360.5,254.6L373.4,254.0L385.3,257.2L387.2,260.0L376.2,267.8L370.7,281.4L350.0,286.4L350.0,291.4L337.7,299.8L336.6,297.0L326.4,294.0Z M343.5,250.9L341.5,252.0L343.5,250.9Z M350.8,250.8L344.5,252.0L345.7,250.1L350.8,250.8Z"/>
    <path data-country="Bélgica" d="M486.7,167.2L497.0,168.9L486.7,167.2Z"/>
    <path data-country="Camerún" d="M510.2,247.0L506.2,246.9L503.6,241.9L511.7,240.1L518.4,231.7L521.8,236.1L517.2,236.5L521.5,239.1L518.4,241.6L523.1,247.6L510.2,247.0Z"/>
    <path data-country="Canadá" d="M226.2,170.9L151.8,171.7L147.2,167.5L139.3,167.0L141.4,163.3L137.6,164.5L137.1,160.5L132.0,159.7L134.7,157.0L119.9,146.4L104.0,144.4L104.0,113.3L119.6,117.2L134.2,110.8L125.5,117.0L138.7,109.5L186.5,119.6L194.0,125.6L192.3,119.3L198.3,117.3L189.8,118.6L196.7,116.1L207.4,120.8L224.3,118.5L225.0,124.5L231.0,117.3L222.6,111.3L226.1,103.6L239.3,118.8L245.3,116.6L246.6,122.9L254.6,115.8L251.8,112.5L260.7,113.3L257.9,113.7L263.3,115.5L259.6,118.0L262.7,123.3L247.0,129.0L236.0,127.0L248.2,129.7L239.4,134.6L229.9,132.7L238.3,136.3L227.2,143.8L232.3,153.4L260.5,157.8L261.6,164.7L268.4,168.0L270.9,164.6L267.3,159.0L276.0,154.6L270.5,149.0L274.2,145.0L271.6,138.6L283.5,138.0L295.0,142.6L290.6,145.0L297.7,148.5L295.0,151.2L308.3,144.5L318.2,158.2L327.1,159.1L317.5,161.2L326.8,160.1L331.5,164.9L319.6,169.1L302.8,169.0L260.1,186.2L259.9,179.3L255.7,176.8L226.2,170.9Z M300.9,179.5L295.4,174.9L291.0,179.4L280.8,179.9L305.2,171.1L308.8,172.7L301.7,173.8L317.4,179.3L305.4,182.8L303.5,181.0L311.0,179.2L300.9,179.5Z M339.7,174.8L321.6,174.0L331.0,166.0L328.4,170.5L337.4,171.1L336.2,174.1L339.7,174.8Z M130.4,164.8L126.5,162.5L130.4,164.8Z M132.7,160.8L135.1,162.3L132.7,160.8Z M126.5,162.4L125.1,160.1L128.9,160.1L126.5,162.4Z M226.1,116.4L214.4,115.8L226.1,116.4Z M211.0,112.7L178.0,118.0L166.8,111.9L182.6,110.5L162.3,104.4L174.4,96.9L192.7,105.1L191.2,98.1L195.0,97.2L211.0,112.7Z M285.5,124.2L285.3,118.8L269.8,109.3L251.2,111.9L239.7,103.7L253.1,94.8L248.7,100.0L253.8,106.5L248.5,107.8L253.9,108.0L250.5,103.3L255.6,103.2L251.5,99.2L256.1,99.9L252.1,98.2L262.6,95.3L264.0,103.9L275.0,99.9L282.2,103.2L279.8,107.0L291.6,107.4L289.2,111.8L297.7,109.5L292.1,112.5L302.3,115.1L295.0,116.6L316.6,124.5L310.6,130.5L305.3,127.6L308.4,125.6L296.4,126.1L306.4,131.7L306.8,137.6L272.0,132.0L285.5,124.2Z M172.5,96.3L152.5,107.4L144.3,103.5L149.9,95.0L147.3,92.1L172.5,96.3Z M151.1,172.8L137.6,167.9L151.1,172.8Z M268.6,138.7L266.0,139.9L268.6,138.7Z M292.7,137.6L290.0,136.8L292.7,137.6Z M260.8,136.5L256.2,138.2L260.8,136.5Z M273.2,135.6L270.5,135.1L273.2,135.6Z M266.2,134.1L247.4,134.4L252.0,127.0L266.2,134.1Z M254.7,126.5L258.1,127.8L254.7,126.5Z M284.4,120.3L280.6,119.5L284.4,120.3Z M279.9,119.0L273.8,120.7L279.9,119.0Z M200.9,95.7L194.6,96.4L200.9,95.7Z M264.3,95.8L277.2,99.2L264.3,95.8Z M223.1,101.2L216.7,106.6L206.0,99.6L219.3,94.3L217.5,99.3L223.1,101.2Z M215.3,94.6L219.6,93.5L215.3,94.6Z M239.2,94.2L229.2,103.4L224.8,98.8L239.2,94.2Z M203.6,87.6L200.2,87.9L203.6,87.6Z M230.8,88.9L222.4,88.7L230.8,88.9Z M206.5,83.1L202.7,83.4L206.5,83.1Z M165.9,83.7L161.6,85.4L165.9,83.7Z M203.2,82.9L206.6,82.2L203.2,82.9Z M201.6,80.4L205.3,80.6L201.6,80.4Z M220.2,85.8L205.6,85.3L217.5,79.1L220.2,85.8Z M198.9,84.9L180.2,91.7L174.9,90.2L184.1,87.3L166.2,87.2L173.7,80.1L189.6,86.0L185.6,80.8L189.9,78.0L198.9,84.9Z M173.8,78.6L177.5,78.5L173.8,78.6Z M267.8,88.7L236.0,90.5L231.8,81.1L221.4,78.7L267.8,88.7Z M161.8,81.9L151.9,82.6L162.1,75.2L172.3,75.2L161.8,81.9Z M240.9,74.9L236.8,73.5L240.9,74.9Z M201.6,76.0L197.1,72.5L201.6,76.0Z M231.3,73.1L223.1,73.3L231.3,73.1Z M206.8,72.4L210.8,72.4L206.8,72.4Z M176.8,71.6L173.0,71.0L176.8,71.6Z M187.7,70.2L177.8,72.0L187.7,70.2Z M188.6,67.6L177.8,68.4L188.6,67.6Z M221.6,72.1L217.7,65.4L227.1,68.3L221.6,72.1Z M198.4,63.0L216.1,70.3L198.4,63.0Z M212.9,56.1L216.9,57.8L212.9,56.1Z M222.3,55.8L231.3,44.3L253.6,61.8L234.6,69.3L228.6,63.9L239.0,61.9L222.3,55.8Z M317.1,38.3L271.8,61.1L281.0,66.7L261.5,72.8L272.8,78.2L263.8,82.4L241.2,78.0L260.5,70.2L246.6,69.8L262.7,63.4L249.3,53.6L265.1,59.5L258.1,53.5L275.3,43.7L253.0,52.0L260.3,46.0L234.8,41.6L268.7,40.1L260.3,38.3L274.3,38.3L317.1,38.3Z M319.8,178.3L315.9,177.8L318.9,175.8L316.9,178.5L319.8,178.3Z M314.7,176.9L308.2,176.5L314.7,176.9Z M308.5,170.0L315.6,171.4L308.5,170.0Z M264.6,163.1L261.2,162.8L264.6,163.1Z"/>
    <path data-country="Chile" d="M294.6,274.7L301.3,282.8L291.9,295.6L293.8,300.7L287.6,315.5L290.3,319.3L283.8,329.4L288.1,334.8L297.5,335.5L289.9,339.2L286.8,338.1L289.6,336.5L284.5,337.5L289.1,336.1L283.5,336.5L286.8,334.4L282.9,334.0L281.0,326.3L284.7,326.2L278.1,323.4L283.4,323.2L286.4,319.2L283.5,306.0L289.0,299.5L294.6,274.7Z M297.0,341.4L288.0,340.7L296.0,340.6L292.1,337.8L294.9,335.9L297.0,341.4Z M298.7,343.4L293.3,342.2L298.7,343.4Z M286.6,339.6L283.7,338.6L286.6,339.6Z M284.8,337.9L280.7,336.6L284.8,337.9Z M279.5,329.9L281.2,327.7L279.5,329.9Z M281.8,316.8L283.8,314.0L281.8,316.8Z"/>
    <path data-country="Colombia" d="M269.8,248.0L274.6,244.6L273.5,238.0L290.0,232.7L284.3,237.2L288.0,240.2L300.1,241.4L301.6,248.1L293.7,247.6L293.4,255.9L293.1,253.6L285.5,253.4L269.8,248.0Z"/>
    <path data-country="Corea del Sur" d="M822.3,191.8L825.2,197.2L817.4,199.2L817.4,193.3L822.3,191.8Z"/>
    <path data-country="Costa Rica" d="M256.8,234.7L258.9,238.8L251.1,235.7L256.8,234.7Z"/>
    <path data-country="Croacia" d="M524.0,176.9L531.8,179.5L522.1,179.5L527.0,183.8L516.3,179.6L524.0,176.9Z M529.2,184.6L525.3,183.6L529.2,184.6Z"/>
    <path data-country="Dinamarca" d="M503.1,158.4L501.8,154.0L506.4,153.0L502.0,153.7L508.4,151.3L506.1,154.1L509.1,154.9L503.1,158.4Z M508.4,158.0L505.8,156.9L508.4,158.0Z M512.1,158.4L509.0,156.3L513.7,155.6L512.1,158.4Z"/>
    <path data-country="Ecuador" d="M269.8,248.0L279.4,251.3L269.2,257.0L265.4,256.1L267.3,252.8L264.0,253.0L269.8,248.0Z M237.8,251.0L236.0,249.9L237.8,251.0Z"/>
    <path data-country="El Salvador" d="M239.7,230.7L246.1,230.6L239.7,230.7Z"/>
    <path data-country="España" d="M475.2,183.0L488.5,185.8L474.3,195.1L465.0,196.3L460.2,194.3L463.5,186.4L455.4,183.4L475.2,183.0Z M488.9,189.7L486.3,190.1L488.9,189.7Z"/>
    <path data-country="Estados Unidos" d="M152.7,171.7L244.3,173.2L259.9,179.2L259.6,186.2L291.0,179.4L295.4,174.9L301.4,180.2L292.6,182.5L293.5,186.2L282.7,186.9L277.5,194.4L277.8,190.0L276.5,192.8L274.5,191.3L278.6,196.7L275.4,195.8L276.4,198.2L262.7,204.1L265.6,213.8L256.9,206.4L245.3,205.1L238.9,205.9L241.6,208.0L226.5,206.7L219.3,210.3L220.4,212.8L209.6,206.6L204.3,207.8L196.3,203.5L183.8,204.1L158.3,198.8L153.3,193.7L156.1,192.9L151.9,192.9L148.2,188.5L151.5,177.5L147.4,173.0L152.7,175.7L152.7,171.7Z M104.0,113.3L104.0,144.4L119.8,146.3L133.1,155.5L131.5,158.7L119.1,146.7L119.7,150.0L115.6,150.0L107.9,145.1L86.1,141.6L75.0,147.3L81.5,140.9L57.5,155.7L44.4,158.6L60.2,151.9L61.9,147.5L47.5,148.9L48.3,143.2L42.4,145.7L38.9,143.7L43.8,142.6L36.8,140.7L51.2,131.0L31.6,127.9L52.7,125.4L35.1,118.3L62.7,106.0L104.0,113.3Z M128.1,158.6L123.7,154.8L128.1,158.6Z M122.9,153.0L125.5,154.1L122.9,153.0Z M121.0,153.8L118.2,152.3L121.0,153.8Z M74.2,151.6L67.2,152.3L74.2,151.6Z M117.7,152.2L120.2,150.5L117.7,152.2Z M121.7,152.9L120.1,149.5L121.7,152.9Z M74.8,149.7L71.4,150.2L74.8,149.7Z M288.2,187.3L282.6,188.2L288.2,187.3Z M15.9,164.6L12.4,165.1L15.9,164.6Z M32.4,162.0L29.0,163.3L32.4,162.0Z M36.5,161.2L32.4,162.2L36.5,161.2Z M66.9,222.3L64.3,223.1L64.3,221.3L66.9,222.3Z M45.1,158.9L40.1,159.1L45.1,158.9Z M38.4,145.3L33.5,144.6L38.4,145.3Z M30.0,135.6L21.7,134.9L30.0,135.6Z"/>
    <path data-country="Francia" d="M335.7,247.1L336.2,242.0L342.3,244.2L335.7,247.1Z M486.7,167.2L501.9,171.8L495.9,177.5L500.5,181.7L487.1,185.0L476.1,183.6L477.0,177.3L467.3,172.7L476.4,172.5L474.8,170.2L486.7,167.2Z M502.8,185.2L505.2,183.7L504.6,186.8L502.8,185.2Z"/>
    <path data-country="Ghana" d="M479.6,234.4L483.2,241.5L471.7,242.9L472.4,234.6L479.6,234.4Z"/>
    <path data-country="Guatemala" d="M241.7,229.8L234.0,229.6L238.8,227.3L237.4,224.9L242.2,224.8L244.7,227.9L241.7,229.8Z"/>
    <path data-country="Honduras" d="M241.7,229.8L246.4,227.6L258.3,228.9L247.9,231.8L241.7,229.8Z"/>
    <path data-country="Inglaterra" d="M460.7,158.0L465.5,159.4L459.1,160.1L460.7,158.0Z M472.9,166.0L465.8,165.5L472.8,162.1L471.9,158.2L466.2,158.4L467.3,155.2L464.6,157.4L466.7,148.9L475.1,151.6L469.8,155.4L484.7,163.7L480.7,167.9L464.8,169.5L472.9,166.0Z M461.5,151.3L463.4,149.3L461.5,151.3Z"/>
    <path data-country="Irán" d="M599.5,189.9L607.9,189.8L618.4,195.3L632.5,192.4L643.1,195.2L642.3,206.5L648.4,211.6L643.8,214.0L634.9,213.3L609.2,206.3L601.0,199.8L603.5,196.7L597.9,193.0L599.5,189.9Z M629.9,211.0L627.4,211.7L629.9,211.0Z"/>
    <path data-country="Italia" d="M498.7,178.0L516.5,176.8L513.0,181.3L529.0,189.6L525.3,188.4L521.8,192.9L521.7,189.1L506.9,181.8L500.0,182.2L498.7,178.0Z M521.4,192.3L520.3,195.2L513.1,193.2L521.4,192.3Z M506.1,188.3L503.0,191.3L501.8,187.5L506.1,188.3Z"/>
    <path data-country="Japón" d="M831.1,202.3L828.4,204.7L825.5,200.8L829.4,199.8L831.1,202.3Z M839.2,200.0L832.0,200.8L839.2,200.0Z M835.8,199.0L829.2,199.0L842.9,196.9L857.2,186.7L854.3,197.7L844.9,197.9L842.0,200.7L841.1,198.6L835.8,199.0Z M868.7,183.0L852.7,185.0L858.5,178.8L868.7,183.0Z"/>
    <path data-country="Marruecos" d="M456.5,210.0L449.6,211.2L440.7,219.4L434.6,219.5L464.2,196.7L474.1,197.9L477.2,202.2L456.5,210.0Z"/>
    <path data-country="México" d="M221.0,212.6L219.0,217.8L224.4,223.5L236.0,223.9L239.5,220.0L248.7,219.9L245.7,224.3L237.4,224.9L238.8,227.3L234.1,229.6L227.1,226.9L219.3,227.5L200.0,222.6L198.0,217.9L178.0,204.2L173.3,203.1L174.2,206.0L186.6,217.3L173.3,209.9L175.8,208.6L167.7,202.2L196.2,203.4L221.0,212.6Z"/>
    <path data-country="Nigeria" d="M489.6,233.6L494.7,230.5L516.3,230.8L519.1,233.0L510.3,241.0L496.3,244.1L487.2,241.1L489.6,233.6Z"/>
    <path data-country="Panamá" d="M259.8,236.6L269.4,236.6L274.2,238.9L269.2,237.3L264.4,240.0L258.9,238.8L259.8,236.6Z"/>
    <path data-country="Paraguay" d="M312.9,281.7L315.3,277.8L322.5,277.3L325.4,281.4L335.3,284.4L333.9,288.4L323.7,289.5L326.0,286.2L312.9,281.7Z"/>
    <path data-country="Países Bajos" d="M499.2,162.3L496.0,167.9L489.2,166.2L499.2,162.3Z"/>
    <path data-country="Perú" d="M294.6,274.7L292.3,275.9L277.5,270.6L263.7,258.4L264.5,255.2L269.2,257.0L278.3,250.2L293.2,253.8L293.4,256.0L285.6,257.1L282.6,260.5L296.8,267.5L294.6,274.7Z"/>
    <path data-country="Polonia" d="M530.2,170.6L519.5,167.7L517.8,160.8L542.5,160.2L544.3,168.4L540.9,171.7L530.2,170.6Z"/>
    <path data-country="Portugal" d="M461.1,191.4L456.0,194.6L457.0,185.5L463.5,186.4L461.1,191.4Z"/>
    <path data-country="Qatar" d="M615.5,214.5L616.7,212.3L615.5,214.5Z"/>
    <path data-country="Senegal" d="M447.3,229.2L447.0,232.8L435.4,232.7L443.2,231.2L433.2,229.3L440.1,226.5L447.3,229.2Z"/>
    <path data-country="Serbia" d="M534.0,177.7L540.7,180.7L539.8,185.0L531.1,182.8L530.3,178.2L534.0,177.7Z"/>
    <path data-country="Suecia" d="M535.0,115.7L543.1,119.8L544.4,127.4L527.2,136.5L525.8,143.3L530.9,145.9L523.1,148.9L522.3,155.5L514.2,157.2L509.6,148.1L514.4,141.4L512.0,135.6L523.1,121.5L535.0,115.7Z M525.7,152.4L523.8,155.2L525.7,152.4Z M530.8,150.9L528.4,153.4L530.8,150.9Z"/>
    <path data-country="Suiza" d="M507.9,176.1L495.9,177.6L502.8,174.2L507.9,176.1Z"/>
    <path data-country="Turquía" d="M595.8,187.3L599.4,194.4L576.4,196.7L576.1,194.7L553.1,195.2L549.5,190.2L568.9,185.6L595.8,187.3Z M554.7,185.7L557.3,187.4L549.8,189.2L550.2,186.0L554.7,185.7Z"/>
    <path data-country="Ucrania" d="M564.7,164.9L587.0,170.5L586.0,174.2L573.3,178.4L564.6,175.3L556.2,179.4L560.4,177.0L557.7,173.9L539.0,173.0L543.0,166.0L564.7,164.9Z"/>
    <path data-country="Uruguay" d="M326.4,294.0L338.3,298.1L336.6,300.9L324.8,300.5L326.4,294.0Z"/>
  </g>
</svg>