<svg viewBox="0 0 960 500" xmlns="http://www.w3.org/2000/svg">
  <g class="map-bg">
    <path d="M811.87,262.81L809.26,264.47L811.87,262.81Z M793.51,244.22L797.36,248.64L794.38,248.45L789.25,255.02L774.04,254.17L771.58,247.31L774.81,248.82L785.45,248.01L788.92,243.9L793.51,244.22Z M855.93,253.61L855.94,262.7L853.74,260.99L850.44,261.56L848.16,257.52L836.96,254.06L834.42,255.68L831.89,253.87L837.17,252.93L829.2,251.96L837.27,251.0L840.91,254.71L847.57,252.04L855.93,253.61Z M773.08,260.92L760.58,259.43L762.81,258.18L776.03,258.94L785.67,262.19L773.08,260.92Z M799.59,251.21L802.22,248.16L813.8,247.67L811.52,249.45L800.36,249.73L801.8,251.94L809.21,251.05L803.46,252.52L807.58,256.17L804.54,256.72L802.8,253.75L800.54,254.11L801.22,257.83L798.49,257.77L796.7,254.3L799.59,251.21Z M749.19,247.46L756.65,249.61L758.75,253.85L762.74,254.14L761.95,258.2L752.83,255.55L734.47,243.29L734.49,242.13L740.07,242.71L749.19,247.46Z M802.11,263.9L797.16,263.33L802.11,263.9Z M791.02,261.53L788.9,262.29L791.02,261.53Z M797.88,262.0L791.28,262.5L797.88,262.0Z M808.07,261.55L799.48,262.19L808.07,261.55Z M788.32,261.55L785.19,261.32L788.32,261.55Z M744.73,252.27L743.09,251.34L744.73,252.27Z M737.28,246.64L735.2,246.07L737.28,246.64Z M813.69,261.45L811.56,261.73L813.69,261.45Z M818.23,260.76L815.4,261.16L818.23,260.76Z M850.5,260.51L847.04,261.75L850.5,260.51Z M831.2,260.06L829.64,261.15L831.2,260.06Z M784.12,259.63L780.51,259.83L784.12,259.63Z M808.4,257.27L808.11,256.1L808.4,257.27Z M819.31,254.82L815.98,254.51L819.31,254.82Z M829.0,254.97L820.91,254.41L829.0,254.97Z M816.88,252.53L814.23,252.57L816.88,252.53Z M814.17,252.47L811.54,252.6L814.17,252.47Z M844.93,252.45L841.13,252.24L844.93,252.45Z M764.72,253.56L760.36,252.73L764.72,253.56Z M843.67,251.52L840.99,250.88L843.67,251.52Z M830.13,250.33L827.25,250.28L830.13,250.33Z M741.14,248.62L738.84,248.03L741.14,248.62Z M820.44,250.29L821.46,246.94L820.34,248.7L823.25,247.82L823.73,249.71L821.09,249.39L822.51,251.26L820.44,250.29Z"/>
    <path d="M752.19,241.29L758.07,248.1L748.56,244.6L747.11,240.68L749.66,242.17L752.19,241.29Z M787.06,243.17L791.41,240.22L798.05,242.77L788.92,243.9L785.45,248.01L772.42,247.78L777.02,248.12L777.22,246.24L787.06,243.17Z"/>
    <path d="M294.64,274.7L296.84,267.5L294.46,265.31L305.56,263.51L306.64,266.77L318.74,269.35L319.57,272.9L324.4,272.92L326.76,275.77L324.91,278.6L315.32,277.84L312.93,281.69L308.47,282.65L303.41,281.02L299.28,282.67L294.64,274.7Z"/>
    <path d="M569.87,198.07L566.06,197.93L569.87,198.07Z"/>
    <path d="M687.47,197.21L692.3,201.79L689.03,202.15L689.99,204.18L696.01,205.95L693.43,208.14L700.67,210.26L714.6,212.01L716.29,209.3L717.59,211.31L725.01,211.34L724.17,209.7L736.2,207.3L739.63,209.47L733.66,211.63L727.67,218.73L726.02,216.09L723.03,216.21L726.62,214.23L715.66,211.63L717.55,219.24L714.42,218.03L710.47,221.64L694.08,227.92L691.88,237.22L686.7,238.75L675.86,227.38L674.45,218.26L668.64,220.58L663.85,218.22L668.01,217.0L661.72,216.23L669.55,215.02L665.43,210.83L671.67,209.53L680.96,202.62L677.12,198.65L687.47,197.21Z M728.14,231.38L727.25,233.93L728.14,231.38Z"/>
    <path d="M690.45,200.76L688.12,197.21L678.35,194.39L679.56,192.06L676.35,190.29L693.95,185.55L692.96,180.05L700.11,179.62L701.39,175.44L708.0,175.76L711.63,171.49L720.92,174.51L722.33,179.5L734.39,181.27L736.95,184.25L759.93,186.38L774.42,184.16L778.56,179.7L799.61,176.55L796.11,173.88L788.04,173.53L791.16,169.95L798.18,169.37L802.33,162.23L814.99,162.73L820.1,170.03L828.46,171.98L829.4,174.46L839.25,173.26L834.93,179.65L829.16,180.17L828.08,184.61L803.15,191.59L804.98,187.47L793.91,190.89L797.72,194.3L807.17,193.9L797.85,198.05L805.13,203.45L798.97,202.46L805.2,204.7L800.39,205.97L805.68,206.44L804.42,208.93L790.65,217.25L782.45,217.01L782.62,218.43L774.29,219.51L774.08,221.27L772.25,219.04L766.26,219.26L760.83,216.61L751.17,217.95L751.35,219.94L747.1,219.51L743.64,215.43L740.04,215.73L743.14,210.13L736.38,207.3L725.21,209.9L709.28,209.64L689.99,204.18L690.45,200.76Z M776.03,222.11L769.83,223.82L771.35,221.79L776.03,222.11Z"/>
    <path d="M571.33,204.33L575.52,200.72L573.2,207.01L571.33,204.33Z"/>
    <path d="M573.61,201.25L577.17,198.68L573.61,201.25Z"/>
    <path d="M570.86,236.81L581.04,229.1L588.89,230.21L593.01,232.55L591.36,234.63L597.29,237.44L607.94,238.86L599.84,243.17L585.35,245.27L575.84,243.73L567.97,238.97L570.86,236.81Z"/>
    <path d="M575.79,243.58L565.78,245.12L555.62,244.05L544.47,237.86L548.88,235.45L551.0,236.77L563.11,236.37L568.56,232.91L570.96,237.97L567.97,238.97L575.79,243.58Z"/>
    <path d="M603.91,240.9L610.5,236.81L610.5,234.27L616.78,233.45L609.72,242.38L590.76,252.36L589.28,246.05L603.91,240.9Z"/>
    <path d="M575.22,243.58L585.35,245.27L591.69,244.47L589.24,246.09L590.76,252.36L585.06,256.44L570.41,251.39L573.35,247.34L570.61,244.13L575.22,243.58Z"/>
    <path d="M573.24,266.18L573.96,274.16L572.0,270.47L567.1,269.06L569.8,264.77L567.83,263.1L573.24,266.18Z"/>
    <path d="M567.79,263.13L558.73,258.73L561.28,251.47L570.67,251.39L584.57,256.52L587.7,264.72L573.24,266.18L571.51,263.56L567.79,263.13Z"/>
    <path d="M575.35,201.82L577.71,194.91L592.92,194.2L589.24,199.06L575.35,201.82Z"/>
    <path d="M610.5,234.27L607.94,238.86L597.4,237.47L593.73,235.18L595.42,233.92L598.9,235.5L610.5,234.27Z"/>
    <path d="M335.78,245.4L328.86,247.2L325.55,243.28L328.12,241.64L335.9,241.87L335.78,245.4Z"/>
    <path d="M329.38,247.3L320.64,247.41L320.84,243.91L316.28,241.73L319.94,238.07L327.55,241.53L325.15,244.23L329.38,247.3Z"/>
    <path d="M822.31,191.76L814.26,193.43L814.54,190.06L811.65,189.11L826.99,183.76L825.91,187.77L820.01,189.8L822.31,191.76Z"/>
    <path d="M456.49,210.0L456.83,212.58L447.96,212.59L445.29,219.66L434.52,220.5L440.67,219.41L449.62,211.21L456.49,210.0Z"/>
    <path d="M251.46,234.51L246.22,231.81L258.32,228.93L256.9,234.9L251.46,234.51Z"/>
    <path d="M529.67,245.17L522.43,255.45L512.03,256.98L510.84,253.24L518.53,252.34L515.45,247.0L522.85,247.7L524.26,245.13L529.67,245.17Z"/>
    <path d="M529.67,245.17L531.76,242.86L539.48,244.26L548.12,242.52L562.39,245.11L563.39,247.08L556.95,253.5L562.01,261.42L555.61,262.93L559.42,268.86L552.48,266.18L539.3,265.73L538.09,260.14L526.93,261.29L524.14,258.21L512.66,258.11L522.43,255.45L529.67,245.17Z"/>
    <path d="M721.27,209.35L725.53,211.2L716.94,211.11L721.27,209.35Z"/>
    <path d="M542.95,166.24L542.63,160.68L554.96,155.31L562.36,156.68L567.25,161.86L561.47,166.86L542.95,166.24Z"/>
    <path d="M523.97,291.44L511.35,274.35L546.77,274.81L535.93,275.89L533.28,291.2L523.97,291.44Z"/>
    <path d="M533.28,285.5L537.77,288.76L541.42,286.34L547.89,286.97L557.44,281.67L563.07,281.81L565.32,286.86L562.14,288.67L567.64,289.0L552.27,299.47L532.41,301.57L528.84,300.53L523.92,291.51L533.28,291.2L533.28,285.5Z M557.28,291.97L553.99,291.97L552.98,294.21L557.72,293.58L557.28,291.97Z"/>
    <path d="M630.36,214.15L639.5,218.31L634.18,223.13L621.57,226.55L618.61,223.12L626.61,221.65L630.36,214.15Z"/>
    <path d="M669.22,188.86L664.95,187.87L659.81,190.23L660.75,194.29L657.39,193.98L636.23,184.12L629.28,186.87L629.27,179.87L636.15,178.76L645.4,182.81L653.13,182.35L662.56,188.22L669.54,185.08L667.11,186.5L675.06,187.81L669.22,188.86Z"/>
    <path d="M712.86,171.53L708.0,175.76L701.39,175.44L700.11,179.62L692.96,180.05L694.0,185.22L677.81,183.23L662.56,188.22L653.13,182.35L645.4,182.81L636.15,178.76L629.27,179.87L629.28,186.87L619.83,186.08L620.63,184.29L613.93,180.71L622.03,179.19L621.49,176.08L611.27,177.22L603.94,172.95L606.15,168.93L610.09,169.72L615.38,165.7L625.33,168.44L643.66,167.87L639.96,165.27L645.58,162.89L642.66,160.68L663.85,157.09L675.76,161.88L685.06,159.44L693.39,167.9L702.49,167.4L712.86,171.53Z M649.02,178.75L648.71,177.11L649.02,178.75Z"/>
    <path d="M669.22,188.86L664.8,190.16L676.28,190.27L680.44,193.92L671.07,195.16L669.2,192.03L661.36,194.74L659.81,190.23L667.64,187.4L669.22,188.86Z"/>
    <path d="M550.92,156.52L548.7,160.17L543.01,160.78L536.14,155.52L550.92,156.52Z"/>
    <path d="M791.16,169.95L788.2,173.99L795.93,173.83L799.61,176.55L778.56,179.7L774.42,184.16L759.93,186.38L736.95,184.25L734.39,181.27L722.33,179.5L720.92,174.51L713.96,171.95L726.3,167.68L739.58,170.15L743.7,164.87L769.43,171.02L791.16,169.95Z"/>
    <path d="M714.18,171.36L702.49,167.4L693.39,167.9L685.06,159.44L675.76,161.88L663.81,157.09L642.66,160.68L645.58,162.89L639.96,165.27L643.66,167.87L625.33,168.44L615.38,165.7L610.09,169.72L606.59,168.68L603.94,172.95L611.48,177.35L604.48,180.78L609.54,185.9L607.66,187.08L586.57,182.98L577.54,179.48L582.83,177.82L580.62,176.53L585.04,175.63L581.84,175.22L586.02,174.15L587.02,170.48L574.96,168.81L570.14,164.35L564.7,164.93L563.33,162.84L567.2,161.8L552.88,151.71L554.69,145.87L560.66,145.27L554.15,143.65L564.19,136.75L559.95,134.16L557.47,123.61L560.03,120.81L555.86,117.73L562.24,112.68L589.44,120.84L589.81,123.96L582.81,126.58L564.94,122.74L579.83,134.0L578.19,129.64L588.05,131.61L586.0,128.29L592.42,124.95L597.81,127.23L598.43,119.42L595.51,117.15L604.09,119.16L599.77,121.95L603.75,124.18L623.68,115.97L639.13,118.4L642.47,112.44L662.1,118.96L664.58,116.01L658.12,113.56L657.65,107.49L664.94,98.97L670.84,99.14L674.23,100.11L671.48,105.66L676.39,117.94L670.87,124.49L663.91,123.96L672.2,125.96L679.28,120.81L679.01,116.74L690.81,121.23L686.65,120.57L687.06,116.21L676.69,115.21L678.18,109.14L674.73,105.89L679.34,99.59L681.89,100.78L680.7,106.16L685.1,107.43L690.97,107.72L682.66,103.77L688.33,101.61L702.0,104.58L698.89,109.57L701.63,111.62L702.98,105.0L694.76,95.93L711.42,94.34L708.76,96.55L711.42,98.74L709.02,96.35L713.77,94.4L708.64,90.58L712.07,87.76L745.52,84.36L743.6,80.08L752.67,80.87L749.12,77.3L758.11,72.46L783.71,83.93L760.19,99.85L773.39,93.78L780.93,93.88L784.24,100.62L781.76,99.58L784.29,95.84L807.29,99.56L811.69,94.82L825.18,98.6L821.08,100.31L825.3,102.78L820.44,101.4L829.45,108.85L833.91,103.6L853.42,105.7L850.92,102.24L855.27,99.22L904.63,108.46L908.86,117.68L917.41,112.81L935.0,116.84L934.62,111.32L960.0,115.94L960.0,129.9L945.18,131.13L953.31,130.88L958.83,137.6L951.98,136.86L934.04,145.42L916.34,145.07L911.98,150.37L915.55,151.35L915.64,155.25L897.79,167.69L894.8,157.46L898.0,151.3L921.74,138.1L915.73,137.75L907.16,143.58L907.59,139.63L898.74,140.5L891.26,145.56L893.85,147.46L878.33,145.83L855.74,149.59L840.46,158.58L857.09,162.17L853.81,172.84L835.09,184.31L831.51,183.08L828.43,185.01L829.16,180.17L834.93,179.65L839.25,173.26L829.24,174.42L828.46,171.98L820.1,170.03L816.23,163.39L809.64,161.57L800.09,163.43L801.88,165.2L794.33,170.62L784.76,168.97L769.43,171.02L743.81,164.86L739.58,170.15L726.3,167.68L714.18,171.36Z M540.71,159.7L532.29,159.46L537.0,157.44L540.71,159.7Z M569.68,177.63L577.7,179.17L569.92,181.04L566.62,179.06L569.68,177.63Z M0.0,129.9L0.0,115.94L12.63,120.91L14.76,125.81L16.94,122.87L27.62,126.54L19.04,127.79L21.12,129.87L18.38,132.58L4.1,128.55L4.06,125.45L0.0,129.9Z M960.0,105.42L956.33,107.58L960.0,105.42Z M0.0,107.77L6.82,106.72L0.0,107.77Z M860.08,159.84L866.02,172.46L862.02,170.87L860.12,174.29L863.0,177.13L858.89,178.08L860.08,159.84Z M667.02,124.85L664.35,124.01L667.02,124.85Z M617.09,104.23L622.19,97.68L630.49,97.64L627.27,103.68L633.7,108.88L617.09,104.23Z M631.97,90.29L628.82,87.8L642.87,81.48L664.09,78.91L635.16,90.87L631.28,97.57L623.02,95.0L631.97,90.29Z M870.58,180.98L867.85,182.34L870.58,180.98Z M876.8,179.04L871.63,180.95L876.8,179.04Z M880.89,177.46L878.5,178.7L880.89,177.46Z M896.33,168.19L893.91,169.43L896.33,168.19Z M848.12,158.01L845.94,158.69L848.12,158.01Z M924.44,158.74L921.99,157.43L924.44,158.74Z M919.22,148.0L915.77,149.18L919.22,148.0Z M614.19,115.28L608.59,116.27L614.19,115.28Z M931.86,112.51L927.34,112.58L931.86,112.51Z M641.44,112.63L635.77,110.84L641.44,112.63Z M621.95,106.81L619.23,106.41L621.95,106.81Z M847.77,105.32L845.31,105.5L847.77,105.32Z M688.74,100.84L684.94,101.85L688.74,100.84Z M822.18,99.63L825.11,99.63L822.18,99.63Z M692.17,99.83L689.56,99.49L692.17,99.83Z M671.12,97.65L666.33,98.56L671.12,97.65Z M862.6,97.2L852.71,96.73L862.6,97.2Z M843.36,94.06L840.94,92.53L843.36,94.06Z M856.26,93.09L853.77,93.49L856.26,93.09Z M782.42,91.58L777.22,92.25L782.42,91.58Z M712.08,88.7L709.9,89.17L712.08,88.7Z M882.21,87.77L869.52,87.35L882.21,87.77Z M702.08,83.35L699.36,83.26L702.08,83.35Z M867.64,85.7L844.97,86.68L850.8,81.72L867.64,85.7Z M737.72,81.55L734.04,81.84L737.72,81.55Z M878.33,78.75L875.82,79.41L878.33,78.75Z M737.41,75.87L733.95,77.11L737.41,75.87Z M767.21,69.81L763.72,69.85L767.21,69.81Z M761.11,66.73L744.72,70.45L752.81,60.54L761.11,66.73Z M686.97,59.87L682.8,58.89L686.97,59.87Z M729.68,56.66L722.31,55.63L729.68,56.66Z M616.92,56.5L613.45,56.33L616.92,56.5Z M746.36,63.45L727.61,59.6L740.25,54.72L746.36,63.45Z M628.79,50.82L631.86,50.38L628.79,50.82Z M604.5,51.78L610.04,50.67L604.5,51.78Z M645.93,49.35L637.92,50.73L645.93,49.35Z M635.01,49.63L637.41,49.25L635.01,49.63Z M628.71,49.6L623.95,49.32L628.71,49.6Z M617.84,50.09L604.32,53.73L617.84,50.09Z M692.82,47.93L690.6,49.09L692.82,47.93Z M636.41,47.32L634.24,47.28L636.41,47.32Z M632.9,48.66L629.59,46.89L632.9,48.66Z M625.5,47.75L633.91,49.52L625.5,47.75Z M724.13,46.33L719.72,46.15L724.13,46.33Z M740.66,49.97L723.79,53.62L740.66,49.97Z M632.71,43.83L636.19,43.95L632.71,43.83Z M646.68,41.69L650.15,41.62L646.68,41.69Z M635.45,41.1L638.51,40.1L635.45,41.1Z M637.34,56.28L639.81,56.17L637.34,56.28Z M628.57,55.3L632.41,54.52L628.57,55.3Z M620.33,54.65L623.65,53.93L620.33,54.65Z M633.41,55.07L638.07,53.45L633.41,55.07Z M640.68,47.38L644.54,46.77L640.68,47.38Z M647.39,48.72L654.58,48.28L647.39,48.72Z M628.39,45.91L634.41,45.02L628.39,45.91Z M636.17,44.77L638.36,44.72L636.17,44.77Z"/>
    <path d="M519.49,167.7L530.22,170.63L517.44,172.55L512.2,168.89L519.49,167.7Z"/>
    <path d="M544.82,150.94L542.59,147.36L555.16,146.92L552.94,151.83L544.82,150.94Z M541.95,149.26L538.25,149.82L541.95,149.26Z"/>
    <path d="M552.94,151.83L553.58,156.21L535.93,155.12L539.96,151.27L552.94,151.83Z"/>
    <path d="M535.0,115.73L524.75,120.04L518.77,126.34L517.73,132.81L512.45,134.61L514.37,141.37L511.11,148.15L508.5,145.44L501.66,150.33L494.61,148.6L498.95,143.78L495.3,145.22L493.38,142.25L500.52,141.71L493.85,142.08L498.18,139.83L493.56,138.9L509.09,135.05L505.46,134.06L528.42,114.07L553.73,107.19L554.7,111.61L562.53,110.05L556.26,111.24L562.4,113.73L535.0,115.73Z M504.37,134.71L502.07,135.02L504.37,134.71Z M520.0,118.29L517.86,119.09L520.0,118.29Z M524.08,116.94L519.96,118.65L524.08,116.94Z M518.39,117.17L521.02,116.44L518.39,117.17Z M528.19,114.15L524.73,115.52L528.19,114.15Z M530.66,112.59L527.99,113.54L530.66,112.59Z M532.32,111.83L529.94,112.11L532.32,111.83Z M543.08,109.83L540.94,110.23L543.08,109.83Z M539.79,109.8L542.62,108.59L539.79,109.8Z M549.7,107.58L547.45,107.62L549.7,107.58Z M458.77,106.99L455.69,108.27L458.77,106.99Z M545.13,71.88L535.55,73.74L545.13,71.88Z M536.06,69.25L539.39,68.92L536.06,69.25Z M512.38,69.13L507.96,64.55L512.38,69.13Z M558.5,64.45L554.25,64.89L558.5,64.45Z M533.89,66.35L523.58,79.75L517.1,73.78L525.35,71.14L516.24,70.35L526.12,67.79L514.69,69.35L508.47,59.71L523.83,64.4L521.71,57.46L524.11,55.75L533.89,66.35Z M568.26,54.29L563.94,55.29L568.26,54.29Z M552.46,55.54L544.14,62.37L527.42,55.02L552.46,55.54Z"/>
    <path d="M557.21,115.76L563.32,137.97L553.88,143.84L537.09,143.57L537.32,135.82L547.85,130.23L543.17,125.89L543.1,119.84L535.0,115.73L546.41,117.57L554.31,111.59L557.21,115.76Z"/>
    <path d="M766.72,229.35L753.18,217.52L760.83,216.61L767.98,219.43L761.64,223.13L770.54,228.56L771.91,231.91L770.68,234.14L759.26,238.01L758.54,235.45L766.7,232.72L766.72,229.35Z"/>
    <path d="M766.72,229.35L763.14,234.96L755.0,234.8L754.49,230.07L766.72,229.35Z"/>
    <path d="M630.08,213.16L626.99,217.73L617.54,215.49L630.08,213.16Z"/>
    <path d="M590.8,184.85L587.1,182.63L599.74,184.19L604.52,186.97L591.5,186.68L590.8,184.85Z"/>
    <path d="M534.85,185.85L541.36,186.14L535.91,187.74L534.85,185.85Z"/>
    <path d="M534.85,185.85L533.82,189.95L531.39,185.27L534.85,185.85Z"/>
    <path d="M600.01,186.93L609.54,185.9L614.38,188.86L609.62,192.16L607.92,189.82L604.04,191.3L600.01,186.93Z M603.03,191.33L599.4,189.83L603.03,191.33Z"/>
    <path d="M533.51,184.58L538.06,184.39L533.51,184.58Z"/>
    <path d="M752.32,218.07L758.97,220.68L756.93,222.67L766.5,227.38L766.44,229.58L760.69,230.1L761.71,227.94L757.27,224.09L749.03,225.2L750.01,222.31L746.93,221.1L752.32,218.07Z"/>
    <path d="M693.89,185.25L676.86,190.25L664.6,189.74L675.06,187.81L667.11,186.5L670.41,184.11L693.89,185.25Z"/>
    <path d="M600.01,186.93L604.04,191.3L596.44,189.09L595.84,187.27L600.01,186.93Z"/>
    <path d="M510.68,201.1L530.82,205.86L537.66,201.5L546.71,203.13L546.6,221.65L507.36,214.77L504.76,206.1L510.68,201.1Z"/>
    <path d="M510.68,201.1L505.39,205.92L499.96,199.98L502.94,194.72L509.47,194.48L506.68,199.45L510.68,201.1Z"/>
    <path d="M541.01,173.92L551.84,173.38L558.98,180.13L556.21,182.31L541.04,182.12L533.98,177.66L541.01,173.92Z"/>
    <path d="M541.01,173.92L529.08,178.4L522.92,176.14L525.83,173.77L541.01,173.92Z"/>
    <path d="M540.11,171.56L529.85,174.27L524.92,173.05L531.85,170.43L540.11,171.56Z"/>
    <path d="M460.67,157.98L458.2,159.44L463.71,160.51L463.07,164.71L452.92,166.09L456.66,163.63L453.5,163.89L456.28,162.36L453.03,159.98L460.67,157.98Z"/>
    <path d="M535.91,187.74L551.03,186.73L543.28,187.92L543.98,189.37L540.21,188.44L542.25,190.77L540.07,191.34L544.21,192.57L540.6,193.63L541.86,195.6L536.28,193.08L541.93,192.58L533.33,189.84L535.91,187.74Z M550.19,197.51L542.72,197.55L550.19,197.51Z M545.57,192.58L540.89,191.37L545.57,192.58Z"/>
    <path d="M567.79,263.13L568.54,269.66L551.2,275.52L538.96,273.3L538.61,268.21L544.0,268.21L543.91,265.19L559.38,268.87L555.62,266.11L557.04,261.83L567.79,263.13Z"/>
    <path d="M452.58,238.17L449.4,240.37L444.53,237.39L450.01,236.05L452.58,238.17Z"/>
    <path d="M444.53,237.39L439.79,234.83L443.39,232.25L455.29,232.51L459.57,238.33L455.67,239.99L450.13,236.07L444.53,237.39Z"/>
    <path d="M449.4,240.37L453.94,238.06L459.89,243.95L449.4,240.37Z"/>
    <path d="M540.96,234.74L542.68,237.85L553.18,242.95L539.48,244.26L531.76,242.86L523.15,246.88L518.72,242.64L520.6,239.91L540.96,234.74Z"/>
    <path d="M540.96,234.74L538.16,232.08L543.96,227.89L546.62,218.67L578.36,218.67L582.94,224.56L578.6,225.94L570.86,236.81L568.56,232.91L563.11,236.37L551.0,236.77L548.88,235.45L544.3,237.9L540.96,234.74Z"/>
    <path d="M595.31,233.94L591.36,234.63L593.15,232.47L595.31,233.94Z"/>
    <path d="M594.98,232.2L586.95,229.69L577.4,229.98L578.6,225.94L582.94,224.57L585.91,228.79L594.98,232.2Z"/>
    <path d="M599.38,194.37L603.54,196.68L601.01,199.78L609.49,206.37L604.09,207.73L584.39,202.85L583.4,200.78L589.24,199.06L593.91,194.0L599.38,194.37Z"/>
    <path d="M458.69,235.81L472.83,236.76L472.62,242.82L459.8,243.92L457.02,240.96L458.69,235.81Z"/>
    <path d="M447.3,229.25L465.3,228.21L462.42,214.13L467.14,214.13L491.28,222.9L489.35,228.42L469.38,231.08L463.96,235.77L458.69,235.81L455.61,232.55L449.77,233.17L447.3,229.25Z"/>
    <path d="M489.59,233.64L487.21,241.14L484.32,241.35L482.08,235.06L486.65,232.81L489.59,233.64Z"/>
    <path d="M514.86,256.44L512.56,258.02L514.86,256.44Z M543.91,265.19L544.0,268.21L538.61,268.21L538.62,272.76L542.35,274.9L511.35,274.31L516.92,265.53L512.77,258.48L524.04,258.19L526.93,261.29L538.09,260.14L539.3,265.73L543.91,265.19Z"/>
    <path d="M516.38,178.96L516.54,176.84L524.0,176.79L516.38,178.96Z"/>
    <path d="M547.36,275.12L558.27,281.62L547.89,286.97L541.42,286.34L535.18,288.8L533.28,281.34L535.96,281.28L535.93,275.89L547.36,275.12Z"/>
    <path d="M547.36,275.12L552.06,275.36L561.06,271.99L567.92,273.5L568.02,278.41L563.44,281.93L558.29,281.62L547.36,275.12Z"/>
    <path d="M682.62,195.58L685.37,198.07L676.75,199.07L680.96,202.62L679.09,204.54L665.43,210.83L669.53,215.03L660.37,215.95L657.0,213.16L644.61,214.09L648.85,210.85L642.25,206.51L656.52,206.55L669.5,199.64L670.96,195.55L682.62,195.58Z"/>
    <path d="M550.22,186.14L541.11,186.84L539.73,181.82L556.21,182.31L554.71,185.66L550.22,186.14Z"/>
    <path d="M754.44,233.71L747.4,231.05L744.4,235.54L751.47,242.01L742.08,238.54L745.68,233.47L739.6,223.77L741.4,221.93L747.58,221.06L749.07,225.22L755.72,223.93L759.45,225.42L761.35,229.55L752.89,230.98L754.44,233.71Z"/>
    <path d="M288.65,222.07L288.6,224.52L281.36,223.95L287.06,223.8L284.21,221.9L288.65,222.07Z"/>
    <path d="M288.65,222.07L297.78,223.73L289.55,225.15L288.65,222.07Z"/>
    <path d="M517.51,231.68L515.87,229.73L521.24,226.19L522.59,221.14L519.95,217.17L543.95,222.38L543.96,227.89L538.16,232.08L541.13,234.5L534.49,237.25L521.28,239.52L517.19,236.55L521.82,236.05L517.51,231.68Z"/>
    <path d="M607.86,206.3L609.15,208.61L604.09,207.73L607.86,206.3Z"/>
    <path d="M813.12,262.5L819.5,261.73L813.12,262.5Z"/>
    <path d="M786.62,243.2L784.0,243.6L786.62,243.2Z"/>
    <path d="M467.14,214.13L456.85,210.58L456.86,208.37L476.77,202.9L474.07,197.9L483.59,195.4L502.94,194.72L499.95,199.91L506.2,207.68L505.01,212.32L511.92,216.38L488.89,223.15L467.14,214.13Z"/>
    <path d="M565.64,288.72L563.41,281.96L568.02,278.41L567.92,273.5L560.57,271.05L571.58,270.2L574.11,274.15L575.74,270.91L572.31,266.19L588.03,264.63L588.22,271.78L572.14,277.74L574.66,284.51L565.64,288.72Z"/>
    <path d="M565.2,287.35L563.05,289.28L565.2,287.35Z"/>
    <path d="M561.48,253.34L558.41,256.19L557.42,253.64L561.48,253.34Z"/>
    <path d="M557.37,253.78L561.26,251.48L562.23,253.26L557.37,253.78Z"/>
    <path d="M726.87,218.7L733.69,211.62L738.98,210.89L740.12,208.61L743.14,210.13L740.04,215.73L743.64,215.43L744.39,218.43L749.8,219.25L739.6,223.77L745.68,233.47L742.78,236.06L740.64,226.67L738.35,225.37L731.31,227.52L731.97,224.47L726.87,218.7Z"/>
    <path d="M726.87,218.7L726.18,220.54L721.63,216.24L717.89,219.18L715.69,211.62L726.62,214.23L723.02,216.07L726.02,216.09L726.87,218.7Z"/>
    <path d="M678.78,194.58L669.93,196.13L669.5,199.64L656.52,206.55L642.25,206.51L644.87,204.65L641.5,201.3L643.39,197.0L647.18,197.63L655.36,193.61L664.83,194.41L669.2,192.03L671.07,195.16L678.78,194.58Z"/>
    <path d="M529.32,184.83L530.61,182.68L534.28,183.93L529.32,184.83Z"/>
    <path d="M527.08,183.93L522.11,179.49L531.65,180.08L531.97,182.65L527.08,183.93Z"/>
    <path d="M561.26,251.48L558.81,251.29L562.52,244.89L570.68,244.15L573.35,247.34L570.41,251.39L561.26,251.48Z"/>
    <path d="M279.75,221.79L272.78,221.89L274.15,220.7L261.66,217.64L253.47,218.85L265.07,216.93L282.07,221.17L279.75,221.79Z"/>
    <path d="M550.98,173.27L557.66,173.86L560.35,177.03L555.2,178.95L550.98,173.27Z"/>
    <path d="M643.39,197.0L632.5,192.38L623.77,194.02L620.63,188.41L626.05,187.4L619.83,186.08L632.03,186.99L636.23,184.12L657.66,192.88L647.18,197.63L643.39,197.0Z"/>
    <path d="M574.96,201.93L583.4,200.78L584.78,202.65L578.56,203.88L581.28,205.49L576.04,207.58L573.2,207.32L574.96,201.93Z"/>
    <path d="M714.98,209.68L714.78,211.95L711.24,211.94L693.42,208.05L697.64,205.62L714.98,209.68Z"/>
    <path d="M557.28,291.97L557.72,293.58L552.98,294.21L553.99,291.97L557.28,291.97Z"/>
    <path d="M515.45,247.0L518.58,248.73L518.41,252.63L510.84,253.24L509.64,255.47L503.19,250.81L505.58,248.59L510.23,248.61L510.27,246.8L515.45,247.0Z"/>
    <path d="M489.59,233.64L480.41,229.58L490.26,227.94L491.28,222.9L511.92,216.38L519.95,217.17L521.26,226.16L516.29,230.78L505.57,232.07L492.87,230.69L489.59,233.64Z"/>
    <path d="M486.37,233.36L472.43,234.63L472.63,236.9L465.27,235.44L468.46,231.55L478.08,228.81L486.37,233.36Z"/>
    <path d="M479.56,234.44L483.58,236.09L484.32,241.35L481.38,240.49L479.56,234.44Z"/>
    <path d="M443.39,232.25L439.77,234.73L439.98,233.24L435.39,232.74L443.39,232.25Z"/>
    <path d="M242.15,226.92L244.52,223.87L242.15,226.92Z"/>
    <path d="M319.94,238.07L316.28,241.73L318.37,243.19L312.29,245.05L307.22,244.04L311.01,246.85L305.22,249.1L299.05,246.12L300.13,241.37L288.02,240.24L284.29,237.17L289.71,233.42L287.67,236.29L290.02,237.23L289.11,234.9L293.29,232.93L298.32,235.35L315.08,234.99L311.97,235.91L319.94,238.07Z"/>
    <path d="M855.93,253.61L873.36,258.35L872.5,260.39L881.83,264.76L873.91,264.1L865.39,260.44L859.06,261.45L862.39,262.23L860.41,263.02L855.94,262.7L855.93,253.61Z M895.82,259.24L892.53,257.55L895.82,259.24Z M886.45,256.04L881.24,258.73L875.54,257.91L886.45,256.04Z M888.37,255.94L882.17,253.55L888.37,255.94Z M873.15,252.76L870.72,252.99L873.15,252.76Z"/>
    <path d="M571.65,204.83L571.35,209.89L566.23,206.94L578.36,218.67L546.62,218.67L546.9,203.68L571.65,204.83Z"/>
    <path d="M618.61,223.12L621.57,226.55L619.28,228.04L595.91,232.24L595.47,225.37L605.76,226.11L618.61,223.12Z M625.26,232.44L622.15,232.44L625.26,232.44Z"/>
    <path d="M456.85,210.58L467.14,214.13L462.42,214.13L465.3,228.21L449.27,228.0L447.81,229.31L441.58,226.53L435.89,227.76L434.75,219.67L445.29,219.66L447.96,212.59L456.83,212.58L456.85,210.58Z"/>
    <path d="M506.13,246.75L510.19,246.99L510.23,248.61L505.06,248.46L506.13,246.75Z"/>
    <path d="M435.32,231.69L443.15,231.17L435.32,231.69Z"/>
    <path d="M570.7,197.94L567.23,197.75L570.7,197.94Z"/>
    <path d="M569.81,197.99L567.18,197.74L569.81,197.99Z"/>
    <path d="M685.46,197.86L687.47,197.21L685.46,197.86Z"/>
    <path d="M649.02,178.75L648.71,177.11L649.02,178.75Z"/>
    <path d="M568.48,218.67L570.89,218.67L568.48,218.67Z"/>
    <path d="M342.05,461.7L358.61,461.7L376.56,451.06L419.91,443.21L383.94,430.73L431.33,413.86L441.7,405.44L435.88,403.52L449.63,398.54L451.07,395.66L447.07,393.8L453.15,391.89L478.62,395.59L514.58,388.29L552.73,392.22L567.32,388.15L568.58,382.86L583.84,388.94L586.29,383.48L603.95,377.7L609.02,380.43L611.75,377.51L608.96,376.77L623.44,372.7L632.63,375.12L629.79,378.18L665.7,379.47L665.97,385.29L659.25,389.17L664.69,389.87L656.87,401.89L659.26,402.76L675.75,387.28L705.31,377.11L753.9,372.76L770.29,376.61L781.88,372.43L788.75,375.96L783.06,378.45L797.22,378.23L840.91,373.57L865.37,376.77L863.68,380.1L872.16,381.93L890.34,381.38L912.91,392.73L913.59,389.2L934.09,393.55L934.01,399.39L928.84,398.34L933.15,400.01L931.24,402.58L918.74,402.84L921.16,409.38L908.22,413.41L914.4,415.89L912.8,422.55L916.91,430.8L925.94,433.87L910.81,432.72L905.32,442.44L910.59,443.09L901.79,447.3L908.73,447.0L905.33,450.91L907.49,455.74L917.11,461.7L908.81,461.7L960.0,461.7L960.0,461.7L0.0,461.7L0.0,461.7L65.32,461.7L15.09,461.7L55.48,461.7L73.22,461.7L61.16,454.6L86.54,451.3L77.3,447.38L87.82,443.14L62.59,433.83L69.83,430.85L57.75,429.1L58.08,423.31L92.1,426.15L81.05,418.72L118.88,409.05L175.44,405.47L178.07,408.2L175.72,411.72L182.42,407.03L186.39,408.96L183.19,412.65L216.61,413.09L205.34,404.21L216.4,404.18L205.22,399.88L241.74,399.54L260.97,405.6L265.35,401.04L274.45,405.55L296.59,401.77L302.0,397.15L296.47,385.82L301.98,384.41L300.06,376.91L327.24,364.2L314.14,370.89L317.35,374.4L305.02,378.03L306.02,382.71L312.34,381.92L309.61,384.07L317.51,393.04L313.49,396.28L320.14,400.76L314.49,401.88L317.39,408.7L293.3,420.98L272.82,419.75L286.07,426.49L282.52,430.19L256.3,432.12L277.16,439.48L267.5,443.73L278.52,451.33L314.1,457.73L303.79,461.7L318.93,461.7L312.55,461.7L317.46,461.7L342.05,461.7Z M927.1,430.13L922.63,430.01L927.1,430.13Z M321.9,445.56L301.85,446.54L321.9,445.56Z M303.6,440.95L299.09,440.42L303.6,440.95Z M298.05,438.35L301.2,438.19L298.05,438.35Z M389.56,438.55L381.5,437.57L389.56,438.55Z M302.04,432.28L288.49,439.81L302.04,432.28Z M339.95,445.49L354.07,427.77L363.15,430.95L359.01,434.7L365.5,440.14L339.95,445.49Z M425.69,408.32L421.23,406.69L425.69,408.32Z M280.41,400.63L277.0,402.02L280.41,400.63Z M237.6,400.41L235.5,399.43L237.6,400.41Z M225.34,398.07L207.14,396.93L225.34,398.07Z M280.23,392.36L275.89,392.11L280.23,392.36Z M278.71,388.64L281.61,387.95L278.71,388.64Z M285.75,386.43L288.13,386.82L285.75,386.43Z M315.32,385.91L313.12,384.87L315.32,385.91Z M289.44,399.52L284.9,398.6L291.05,395.95L278.9,395.13L293.77,392.91L287.47,384.51L292.26,383.31L298.11,395.84L289.44,399.52Z M295.71,378.97L299.57,375.47L295.71,378.97Z M312.25,368.32L308.53,368.9L312.25,368.32Z M326.63,367.74L324.11,366.93L326.63,367.74Z M332.91,364.17L329.19,364.67L332.91,364.17Z M316.91,362.52L320.53,362.36L316.91,362.52Z M324.09,361.01L326.43,360.61L324.09,361.01Z M357.31,356.52L359.62,356.87L357.31,356.52Z M47.09,461.7L43.17,461.7L47.09,461.7Z M29.25,461.7L21.6,461.7L29.25,461.7Z M51.81,457.79L42.69,455.96L51.81,457.79Z M69.03,444.17L64.89,442.42L69.03,444.17Z M401.02,443.16L394.24,441.58L401.02,443.16Z M53.75,438.82L41.8,438.36L53.75,438.82Z M78.71,425.0L75.97,424.54L78.71,425.0Z M931.4,425.71L923.11,426.22L931.4,425.71Z M80.72,423.66L77.86,422.79L80.72,423.66Z M90.23,422.43L87.65,422.13L90.23,422.43Z M83.92,421.61L81.36,421.43L83.92,421.61Z M86.77,417.46L88.9,418.5L86.77,417.46Z M130.88,408.42L127.52,408.31L130.88,408.42Z M140.99,408.55L138.16,407.76L140.99,408.55Z M170.29,405.66L166.93,406.82L170.29,405.66Z M160.48,406.76L163.01,405.58L160.48,406.76Z M159.3,405.79L151.07,405.34L159.3,405.79Z M140.07,403.91L149.99,406.52L140.07,403.91Z M472.75,391.5L470.44,391.15L472.75,391.5Z M551.38,389.02L549.1,389.26L551.38,389.02Z"/>
    <path d="M371.0,129.8L372.38,132.2L369.15,132.5L371.93,134.3L364.93,137.19L367.56,138.31L363.7,142.01L366.01,143.26L362.15,143.4L365.1,144.92L359.54,144.96L361.42,143.61L358.1,141.43L351.38,142.89L342.51,134.24L346.55,132.71L341.96,132.76L346.67,130.57L340.9,132.53L343.35,130.05L339.82,129.05L345.19,127.74L337.41,126.84L346.67,123.35L337.46,126.41L340.71,123.84L336.09,123.01L346.84,120.76L336.72,121.35L346.27,119.85L337.63,118.42L346.08,116.02L343.69,115.04L346.03,111.74L334.32,109.2L345.16,110.53L338.69,105.92L342.23,104.57L331.96,105.8L334.98,102.35L331.6,101.31L335.22,101.16L324.25,84.7L297.51,82.64L289.67,76.79L303.56,73.56L285.18,69.66L304.57,62.74L309.92,54.91L300.12,53.34L318.58,39.17L373.86,38.3L358.92,38.3L411.6,38.3L385.2,38.3L423.09,38.3L392.56,39.91L423.13,38.3L416.36,51.32L427.44,41.28L449.66,43.37L424.41,51.54L437.99,52.7L425.55,57.33L429.66,62.1L421.42,72.84L430.64,78.73L419.35,78.99L428.41,84.62L420.24,87.82L429.4,91.37L406.06,98.1L413.19,98.34L406.97,99.47L421.61,104.51L422.73,109.66L403.68,102.75L412.22,106.51L402.04,110.06L420.9,111.61L401.66,118.91L393.37,117.31L394.57,119.93L387.43,125.59L371.0,129.8Z M364.88,144.99L362.32,144.8L364.88,144.99Z M372.95,131.79L371.01,130.43L372.95,131.79Z M338.93,114.52L333.35,113.1L338.93,114.52Z M329.28,91.32L326.52,91.3L329.28,91.32Z M289.13,74.7L286.46,74.57L289.13,74.7Z M292.38,74.53L289.86,74.31L292.38,74.53Z M337.93,38.3L343.49,38.35L337.93,38.3Z M361.26,38.3L352.67,38.3L361.26,38.3Z M374.83,38.3L371.88,38.3L374.83,38.3Z M373.06,38.3L369.37,38.3L373.06,38.3Z M376.44,38.3L371.55,38.3L376.44,38.3Z M412.49,108.81L404.97,110.01L412.49,108.81Z M421.47,101.41L414.71,99.56L421.47,101.41Z M421.52,99.98L414.43,98.98L421.52,99.98Z M414.6,98.51L418.95,97.99L414.6,98.51Z M425.73,92.57L421.37,92.59L425.73,92.57Z M427.17,89.23L424.85,89.6L427.17,89.23Z M433.82,87.92L429.47,86.84L433.82,87.92Z M430.53,82.79L429.14,78.77L430.53,82.79Z M428.49,71.5L425.36,71.0L428.49,71.5Z M429.96,56.34L433.97,56.1L429.96,56.34Z M427.94,55.89L430.13,55.11L427.94,55.89Z M428.11,38.77L430.32,40.08L428.11,38.77Z"/>
    <path d="M960.0,272.73L955.96,273.67L960.0,272.73Z M956.56,275.41L952.67,275.35L956.56,275.41Z"/>
    <path d="M940.66,316.81L932.54,323.22L923.93,322.11L940.26,311.67L944.87,312.55L940.66,316.81Z M951.88,310.0L945.63,313.08L947.16,310.95L943.36,309.45L946.53,305.56L940.54,300.96L944.94,302.29L945.81,305.22L956.13,306.57L951.88,310.0Z"/>
    <path d="M925.43,281.69L917.31,278.48L925.43,281.69Z"/>
    <path d="M598.01,278.92L598.52,272.8L608.0,270.73L611.41,266.72L614.62,271.71L605.67,285.78L597.41,285.88L595.26,281.72L598.01,278.92Z"/>
    <path d="M817.52,239.83L814.32,242.25L809.88,239.12L805.06,240.17L814.56,236.29L817.52,239.83Z M806.13,223.99L803.71,228.54L810.81,232.45L806.77,230.41L801.73,230.67L799.7,228.31L801.52,223.84L806.13,223.99Z M809.53,234.87L808.09,237.4L806.39,236.26L809.53,234.87Z M810.79,234.86L808.87,236.87L810.79,234.86Z M799.13,235.26L792.51,238.38L799.13,235.26Z M814.06,235.58L811.47,233.86L814.06,235.58Z M808.45,233.95L805.2,235.43L805.06,233.36L808.45,233.95Z M815.23,234.42L811.42,232.4L815.23,234.42Z M810.81,233.49L808.63,232.37L810.81,233.49Z M804.07,232.21L800.86,231.09L804.07,232.21Z"/>
    <path d="M698.34,240.12L693.58,241.46L693.26,236.3L698.34,240.12Z"/>
    <path d="M280.38,217.19L279.12,216.12L280.38,217.19Z M272.5,211.17L274.06,212.76L272.5,211.17Z"/>
    <path d="M805.08,214.2L801.9,218.76L800.49,216.0L805.08,214.2Z"/>
    <path d="M441.16,125.45L443.1,130.78L430.05,135.24L419.49,133.94L422.64,131.26L415.84,130.48L422.15,128.62L414.56,128.43L418.8,125.16L423.76,129.57L441.16,125.45Z"/>
    <path d="M668.13,328.68L663.37,329.73L664.04,327.56L668.13,328.68Z"/>
    <path d="M317.33,235.05L314.86,235.96L317.33,235.05Z"/>
    <path d="M304.99,224.17L300.61,224.05L304.99,224.17Z"/>
    <path d="M276.63,224.56L271.0,224.19L276.63,224.56Z"/>
    <path d="M913.0,265.12L910.13,264.25L913.0,265.12Z M908.87,263.73L905.63,262.99L908.87,263.73Z M910.3,263.42L908.27,261.6L910.3,263.42Z M906.29,261.87L902.54,260.49L906.29,261.87Z M900.08,260.21L897.21,259.23L900.08,260.21Z"/>
    <path d="M384.24,341.1L378.58,339.48L384.24,341.1Z"/>
    <path d="M320.98,334.26L317.23,334.95L320.98,334.26Z M325.82,334.15L320.74,335.09L325.82,334.15Z"/>
    <path d="M927.5,273.12L925.83,272.36L927.5,273.12Z M925.71,271.85L924.15,270.57L925.71,271.85Z"/>
  </g>
  <g class="map-countries">
    <path data-country="Alemania" d="M516.84,172.2L513.97,173.57L514.67,174.91L500.29,174.71L501.87,171.8L496.92,170.74L495.82,165.57L498.74,164.64L497.79,163.93L499.27,161.33L506.22,161.61L503.78,160.69L503.1,158.4L509.69,159.62L509.07,160.63L513.42,159.38L516.57,160.13L518.04,161.13L517.66,163.22L519.05,163.85L519.88,167.25L512.2,168.89L516.84,172.2Z M517.89,160.69L516.67,160.18L517.89,160.69Z M516.53,159.61L514.97,159.74L515.71,158.9L516.53,159.61Z"/>
    <path data-country="Arabia Saudita" d="M615.49,214.51L617.33,214.76L616.74,215.18L620.16,217.25L627.16,217.61L628.37,218.7L626.61,221.65L610.76,223.73L605.76,226.11L595.77,225.28L594.11,226.95L588.65,221.97L584.46,220.0L584.38,218.06L582.54,215.97L579.81,215.09L573.91,209.38L572.19,209.29L573.2,207.32L576.19,207.57L581.28,205.49L578.56,203.88L584.42,202.85L587.65,203.15L599.18,207.56L609.32,208.68L610.22,210.07L613.76,211.55L613.31,212.58L615.49,214.51Z M592.5,226.46L591.35,226.19L592.5,226.46Z"/>
    <path data-country="Argentina" d="M300.82,282.57L303.41,281.02L307.74,281.64L308.47,282.65L309.47,281.35L312.52,281.34L317.32,284.06L325.99,286.16L326.47,286.75L323.72,289.46L331.32,289.66L333.89,288.42L334.4,286.76L336.24,286.85L336.9,287.82L336.45,289.21L331.27,290.9L325.63,294.6L323.81,300.75L327.34,302.37L327.02,303.64L328.87,304.69L326.51,307.35L320.54,308.62L313.65,308.55L314.18,311.85L312.72,312.61L306.32,312.25L306.65,314.57L308.15,315.23L309.95,314.54L310.35,315.8L306.81,315.62L308.53,316.24L305.78,317.54L305.28,320.0L301.52,320.64L299.79,322.1L301.9,324.15L304.68,324.55L304.41,325.66L302.96,325.91L304.63,326.09L299.85,328.32L298.95,330.42L295.96,330.44L297.73,330.75L294.9,332.8L296.1,333.86L294.36,334.0L296.07,333.99L297.51,335.73L288.09,334.78L286.8,333.84L287.19,331.84L284.86,332.06L283.81,330.28L287.19,326.92L286.55,326.02L288.83,323.51L288.63,321.27L289.82,320.66L287.76,319.71L290.34,319.26L288.37,318.92L288.69,316.64L287.6,315.5L288.7,314.55L288.76,309.99L291.1,308.17L290.15,305.11L292.3,303.76L291.79,302.39L293.79,300.66L291.82,295.82L293.77,293.97L294.26,291.16L297.79,289.04L297.14,285.53L300.43,284.35L300.82,282.57Z M296.95,341.33L296.99,336.3L298.06,337.36L297.2,337.68L299.81,339.24L306.29,341.0L302.8,341.98L296.95,341.33Z M309.63,341.2L307.31,341.45L309.63,341.2Z"/>
    <path data-country="Australia" d="M830.76,296.31L816.02,297.4L811.2,298.66L809.4,300.16L800.01,300.14L794.53,302.15L789.28,301.67L786.69,300.68L786.64,299.47L788.56,299.05L788.59,296.58L786.25,292.29L781.75,287.65L783.65,288.23L782.71,286.66L784.62,287.91L782.38,284.98L783.86,281.26L784.9,282.08L785.72,281.1L791.44,279.15L793.96,279.33L803.01,277.65L806.26,275.6L805.79,274.34L807.78,273.12L809.52,274.83L810.54,273.72L809.52,272.77L813.08,273.1L811.74,272.99L812.62,272.24L811.96,272.51L811.67,271.83L813.83,271.82L812.91,271.28L814.49,271.27L813.7,270.7L814.98,269.96L815.78,270.56L816.23,269.48L816.77,269.97L818.3,269.27L819.78,269.56L821.95,270.67L821.4,271.79L822.75,270.72L825.94,271.35L826.65,270.68L824.99,270.11L828.21,267.36L834.02,266.98L831.96,265.56L840.58,267.22L842.4,266.45L841.74,267.08L842.81,266.88L842.76,267.45L844.19,266.64L845.29,267.28L843.93,268.56L842.36,268.68L841.25,271.0L851.4,274.47L854.73,274.88L857.15,272.61L857.56,268.19L858.69,267.81L857.57,267.56L860.12,264.93L863.42,270.22L865.3,269.87L867.59,270.99L867.73,273.16L869.21,273.78L870.22,276.83L876.75,278.72L879.1,282.08L881.81,281.87L882.17,283.61L884.75,284.39L888.55,287.32L888.1,289.27L889.68,291.58L888.16,295.45L886.77,297.68L883.28,299.49L882.25,302.08L880.51,303.19L879.96,306.25L874.02,307.11L869.93,308.4L870.38,309.17L867.9,307.55L865.8,307.72L866.98,307.42L866.49,306.9L862.77,308.66L857.05,307.85L852.79,305.85L852.61,304.3L850.45,302.93L852.46,304.05L850.78,302.98L851.63,302.59L848.29,303.01L849.47,301.58L848.21,300.48L847.33,302.17L844.9,302.39L846.52,301.81L847.82,299.62L847.4,297.81L845.93,299.69L842.5,301.16L842.57,301.96L840.29,301.27L841.34,301.29L840.69,300.26L837.52,298.48L837.73,297.7L830.76,296.31Z M874.66,316.71L872.76,315.86L871.81,317.44L869.4,317.33L865.86,311.91L870.89,312.87L875.22,312.24L874.66,316.71Z M875.81,311.39L874.66,311.47L875.81,311.39Z M874.71,310.98L874.54,310.19L875.56,311.03L874.71,310.98Z M864.28,310.52L863.85,309.95L864.28,310.52Z M848.35,303.34L844.09,303.51L848.35,303.34Z M889.3,289.62L889.08,290.11L889.3,289.62Z M889.1,289.5L889.2,289.0L889.1,289.5Z M781.91,287.52L781.23,286.62L781.91,287.52Z M888.99,285.86L888.15,287.11L888.99,285.86Z M883.39,283.85L882.61,283.58L883.39,283.85Z M852.62,273.16L851.05,273.61L852.62,273.16Z M845.2,269.9L843.53,269.97L843.76,269.38L845.07,269.29L845.2,269.9Z M843.8,266.09L843.14,266.35L843.8,266.09Z M828.1,266.37L826.71,266.47L827.59,265.82L828.1,266.37Z M830.77,265.96L829.23,266.7L827.65,265.66L830.77,265.96Z M844.7,265.43L843.94,266.01L844.7,265.43Z"/>
    <path data-country="Austria" d="M525.19,172.55L525.53,174.41L523.75,174.51L523.96,175.87L518.77,177.12L513.08,176.49L512.48,175.69L506.96,176.17L505.39,175.33L506.09,174.66L507.09,175.31L512.65,174.36L514.67,174.91L513.99,173.56L519.95,171.69L525.19,172.55Z"/>
    <path data-country="Brasil" d="M326.39,294.02L331.27,290.9L336.45,289.21L336.9,287.82L336.24,286.85L334.4,286.76L335.35,284.43L332.21,284.28L331.04,281.77L325.37,281.45L325.0,277.96L326.76,275.74L324.27,274.31L324.43,272.94L319.57,272.9L318.74,269.35L306.67,266.78L305.61,263.52L302.29,263.83L297.02,265.53L291.62,265.39L291.93,263.16L287.48,263.97L287.17,263.3L284.76,263.13L285.4,262.53L282.62,260.51L284.94,259.01L285.55,257.14L291.61,255.72L293.41,255.97L294.93,251.64L293.19,249.18L295.63,249.1L293.73,248.53L293.72,247.63L298.86,247.58L300.2,247.03L301.1,248.37L305.34,249.09L311.01,246.85L309.21,246.57L307.22,244.04L312.29,245.05L312.62,244.41L317.39,243.69L318.03,242.76L319.43,242.67L321.26,244.52L320.02,246.03L320.64,247.41L323.11,248.35L327.15,247.25L330.79,247.43L330.74,246.48L338.77,246.98L342.44,244.11L342.84,244.54L342.62,243.83L344.59,247.12L346.8,247.61L346.97,248.37L343.13,250.11L341.51,251.86L339.45,252.22L344.43,251.27L344.42,252.72L348.21,252.47L347.56,253.72L349.43,252.22L350.86,252.31L351.9,250.92L355.15,250.99L359.13,251.82L359.14,252.42L360.35,251.97L361.07,252.42L360.47,253.17L361.7,253.24L360.54,254.59L361.89,253.45L362.13,253.99L364.2,253.25L370.01,254.19L373.37,253.96L380.85,256.83L385.31,257.15L387.22,259.99L385.85,262.82L380.6,265.4L377.81,268.12L376.2,267.84L375.63,274.95L370.68,281.36L367.96,282.81L361.57,282.74L358.86,284.1L356.31,284.16L351.44,286.58L350.02,286.42L351.04,286.76L349.88,287.52L350.73,289.21L349.98,291.37L341.15,297.22L345.16,294.44L343.24,293.72L343.28,294.97L337.66,299.83L338.37,298.14L336.65,297.04L331.76,295.08L330.64,295.46L328.45,293.88L326.39,294.02Z M344.48,250.86L343.73,251.15L344.48,250.86Z M343.5,250.85L341.52,252.04L343.5,250.85Z M343.56,250.19L342.92,250.64L343.56,250.19Z M350.77,250.8L348.74,252.25L345.98,252.06L345.59,252.54L344.52,251.99L345.68,250.15L350.86,250.36L350.77,250.8Z M344.07,250.4L344.92,250.03L344.07,250.4Z M347.11,250.14L348.41,250.01L347.11,250.14Z M346.57,249.58L347.92,249.51L346.65,250.07L345.64,249.82L346.57,249.58Z M345.66,249.66L345.69,249.14L345.66,249.66Z M345.83,249.43L346.49,249.1L345.83,249.43Z M350.84,289.6L350.5,290.25L350.84,289.6Z M353.29,285.42L352.27,285.94L353.29,285.42Z"/>
    <path data-country="Bélgica" d="M486.72,167.2L493.41,166.33L497.0,168.89L494.55,170.65L486.72,167.2Z"/>
    <path data-country="Camerún" d="M510.19,246.99L506.16,246.85L506.01,244.25L504.92,244.56L502.69,243.71L503.59,241.89L507.05,240.24L508.21,240.07L510.01,241.05L511.66,240.14L516.68,234.6L518.98,233.86L517.51,231.68L518.45,231.67L520.13,233.09L520.37,235.3L521.82,236.05L517.19,236.53L521.5,239.14L518.37,241.6L520.23,244.6L522.91,246.02L523.08,247.61L518.83,246.93L510.19,246.99Z"/>
    <path data-country="Canadá" d="M226.24,170.93L226.19,171.73L151.76,171.73L151.54,170.21L149.17,170.37L150.58,170.21L149.79,169.23L148.58,170.12L147.12,169.45L148.38,168.47L146.45,168.87L147.16,167.55L144.79,168.62L143.26,168.21L144.97,167.16L143.5,168.11L139.26,167.02L142.39,165.8L139.0,165.89L140.87,164.44L142.21,165.19L140.73,164.12L141.41,163.27L137.62,164.49L138.59,163.07L137.49,163.27L136.07,161.58L139.01,162.35L136.51,161.45L137.07,160.47L135.23,161.98L133.05,160.67L134.69,159.94L132.05,159.65L133.44,159.78L132.34,158.96L133.65,159.06L132.87,158.52L134.73,156.97L133.8,156.64L133.0,158.14L133.14,155.49L128.47,154.21L119.91,146.38L116.64,146.25L113.37,148.21L109.12,144.25L104.01,144.35L103.99,113.31L119.6,117.17L117.42,115.0L121.38,113.0L123.33,113.7L121.93,115.25L134.2,110.8L125.94,114.87L124.02,116.47L125.54,117.04L124.3,116.46L126.71,116.62L125.7,115.58L128.24,114.19L130.38,113.43L130.86,115.32L132.32,113.13L139.96,110.99L138.69,109.46L145.47,114.62L147.65,111.96L146.12,111.89L148.25,111.27L147.98,112.96L149.24,113.18L148.21,114.43L154.57,112.63L173.37,116.38L176.25,118.16L172.69,118.96L171.88,119.94L173.02,120.38L186.51,119.64L192.02,122.28L190.34,122.74L194.02,125.57L192.53,124.11L194.43,123.89L191.98,120.73L192.32,119.31L198.27,117.26L189.83,118.63L196.74,116.08L201.38,119.53L207.42,120.79L216.17,120.77L217.7,120.42L217.11,119.3L220.76,121.04L216.76,118.24L222.92,118.47L221.96,119.59L224.28,118.55L222.76,121.57L225.79,123.25L222.78,123.07L224.95,124.45L223.75,123.57L226.08,123.38L225.39,119.42L231.0,117.26L229.79,115.6L227.64,116.81L230.8,113.95L222.58,111.35L224.55,109.66L222.39,108.62L222.65,106.54L225.24,106.47L224.24,105.11L227.71,103.95L226.07,103.59L230.08,104.41L232.05,106.24L231.89,108.32L235.92,111.16L233.69,110.93L234.82,111.8L232.21,113.21L239.17,114.09L236.13,114.49L238.84,116.33L239.28,118.75L241.78,114.89L245.27,116.61L245.89,118.42L244.34,119.75L246.62,122.86L249.33,121.93L251.55,116.92L254.59,115.78L252.07,114.79L251.83,112.47L260.66,113.35L257.88,113.75L263.27,115.48L261.17,116.33L263.29,117.26L259.6,118.03L263.37,121.63L262.66,123.28L257.17,125.57L256.22,123.69L253.5,123.09L252.76,123.76L254.39,123.5L256.82,126.09L248.58,124.97L251.05,126.21L246.98,129.03L236.01,126.95L248.16,129.65L245.03,132.9L239.66,132.93L240.5,133.52L239.26,133.32L239.41,134.56L229.92,132.74L238.33,136.27L233.46,136.99L234.97,137.61L233.02,137.61L233.41,139.02L231.33,138.37L232.63,138.82L230.35,139.61L231.29,140.22L227.2,143.8L226.67,147.79L228.79,148.46L228.37,150.01L228.86,148.53L231.58,148.62L233.54,152.27L232.31,153.4L238.44,152.59L251.48,156.68L253.02,157.35L252.22,158.15L260.45,157.75L260.53,162.95L262.72,164.47L261.65,164.72L265.08,165.81L265.52,166.6L263.97,167.31L266.3,166.72L268.44,167.99L267.48,166.51L268.47,165.91L269.74,167.03L269.23,165.68L270.91,164.6L269.38,162.81L269.21,160.11L267.29,158.97L272.58,157.48L275.96,154.6L274.8,151.05L270.49,148.95L274.16,145.03L272.98,145.01L273.3,142.83L271.48,142.97L273.4,140.82L271.59,138.58L273.41,137.69L281.18,139.14L283.54,138.03L287.46,139.86L287.19,140.74L289.12,140.6L288.29,141.14L289.14,141.93L295.01,142.62L293.88,145.22L290.57,145.01L294.5,145.57L294.8,148.22L292.66,148.55L297.7,148.52L297.75,150.25L295.01,151.19L298.65,149.06L298.32,150.38L299.36,149.36L299.43,150.79L302.98,148.33L303.86,149.72L304.05,148.16L305.81,147.81L305.17,146.6L306.71,146.9L305.34,145.77L308.32,144.52L307.12,145.22L308.33,144.84L310.06,146.52L309.17,146.89L310.98,147.18L309.23,147.89L312.41,148.78L310.42,149.79L313.18,149.34L311.09,150.64L313.43,150.12L312.87,150.76L314.97,151.54L313.24,151.91L316.36,152.91L315.5,154.14L313.11,153.69L318.18,156.77L319.11,156.24L318.17,158.16L320.6,157.34L321.52,157.8L320.21,158.77L322.24,157.57L321.65,158.2L327.07,159.14L319.64,161.65L317.55,161.21L319.66,162.24L325.88,160.37L324.38,160.04L326.76,160.07L327.8,160.96L326.99,161.87L330.72,161.6L331.34,162.54L330.23,162.81L331.19,163.24L330.23,163.3L331.32,163.74L329.33,163.8L331.61,164.15L330.14,164.14L331.51,164.91L328.09,166.45L323.67,166.77L319.64,169.11L302.75,168.99L294.2,173.5L290.48,172.88L294.04,173.55L292.7,174.85L281.65,178.75L282.77,179.16L275.21,182.49L270.0,182.55L268.87,182.84L269.28,184.1L260.13,186.22L258.24,185.52L260.94,182.62L259.91,179.28L256.97,178.33L255.71,176.82L244.41,173.19L235.8,173.71L227.75,172.29L226.24,170.93Z M300.86,179.51L299.18,178.45L299.16,175.7L295.41,174.92L290.95,179.4L280.77,179.86L291.91,175.84L296.47,173.05L305.16,171.15L307.86,171.5L308.83,172.71L301.74,173.81L307.2,174.2L305.69,175.68L307.2,175.7L307.84,177.43L312.67,178.65L314.9,178.1L317.42,179.33L308.52,180.71L305.4,182.83L303.68,182.3L304.43,180.7L303.52,180.97L308.06,179.19L308.92,179.89L311.04,179.15L306.86,179.22L308.63,178.35L307.34,177.7L307.28,178.65L304.66,179.38L300.86,179.51Z M335.67,174.55L335.03,175.02L335.67,174.55Z M337.15,173.41L336.18,173.37L337.15,173.41Z M333.64,170.53L334.59,170.38L333.64,170.53Z M335.26,170.49L336.06,170.3L335.26,170.49Z M339.66,174.79L338.49,176.54L337.19,176.64L337.17,175.45L335.5,176.21L336.51,175.0L335.78,174.07L331.36,176.16L333.5,174.25L331.74,175.05L330.21,174.83L331.25,173.89L328.56,174.78L321.58,174.02L324.61,172.72L321.97,172.82L324.27,171.42L325.64,171.77L324.72,170.92L326.13,170.73L326.94,168.03L330.95,165.99L332.26,166.14L330.43,166.57L331.38,167.21L328.38,170.54L330.36,169.23L332.09,169.65L330.32,170.8L332.97,170.56L332.31,171.61L334.75,170.55L337.35,171.1L335.56,172.99L338.71,172.65L336.2,173.31L337.04,173.69L336.19,174.11L337.19,174.76L338.87,173.45L337.97,174.72L339.66,174.79Z M140.69,164.19L138.93,165.23L140.69,164.19Z M137.84,164.18L137.62,163.34L137.84,164.18Z M136.19,163.76L135.27,163.28L136.19,163.76Z M130.37,164.77L126.49,162.54L128.54,162.28L129.03,163.05L128.04,163.16L130.37,164.77Z M136.52,163.56L135.79,162.17L137.23,162.83L136.52,163.56Z M134.02,162.33L131.96,161.41L134.02,162.33Z M135.56,161.98L136.47,161.23L135.56,161.98Z M132.25,161.28L133.09,161.55L132.25,161.28Z M132.66,160.79L135.12,162.27L132.66,160.79Z M126.45,162.4L125.14,160.15L127.57,160.52L126.71,161.53L128.9,160.15L128.1,162.22L126.45,162.4Z M325.68,158.59L324.73,158.46L325.68,158.59Z M132.18,158.66L132.89,158.11L132.18,158.66Z M316.23,154.76L315.21,154.64L316.23,154.76Z M316.72,154.56L315.63,154.45L316.72,154.56Z M315.65,153.57L316.3,154.14L315.65,153.57Z M295.73,147.58L295.03,148.04L295.73,147.58Z M187.05,119.06L187.82,118.73L187.05,119.06Z M201.36,117.72L199.77,117.59L201.36,117.72Z M208.82,116.75L207.06,117.07L208.82,116.75Z M212.78,116.62L211.65,115.88L212.78,116.62Z M210.72,113.98L209.65,113.76L210.72,113.98Z M222.52,113.99L223.73,114.04L222.52,113.99Z M224.15,114.22L225.68,113.85L224.15,114.22Z M226.09,116.4L222.61,117.98L214.41,115.76L218.6,114.17L217.68,113.49L218.87,112.32L226.09,116.4Z M181.46,110.57L180.47,110.44L181.46,110.57Z M212.4,109.89L211.43,109.09L212.4,109.89Z M211.01,112.68L204.03,113.13L205.29,113.98L204.84,115.42L207.25,113.89L208.61,115.11L205.42,116.64L199.67,116.27L195.78,113.89L189.26,116.92L178.02,117.96L177.22,115.12L170.73,114.7L166.82,111.94L182.63,110.46L166.44,109.4L164.3,107.64L173.18,105.47L164.9,106.11L166.15,104.84L162.3,104.37L164.99,102.33L163.75,101.41L164.83,100.45L174.44,96.89L176.11,98.07L174.51,100.75L179.04,98.72L183.41,100.04L181.99,102.42L187.25,101.38L184.7,98.73L187.67,99.14L192.69,105.06L194.0,103.8L191.2,98.1L195.0,97.23L199.02,99.72L201.69,105.24L201.09,107.43L210.61,111.14L211.01,112.68Z M285.47,124.23L287.48,122.3L285.35,118.78L280.05,116.6L280.51,115.54L275.67,117.09L278.39,114.95L274.13,113.32L274.73,112.13L273.03,112.94L272.79,111.08L269.76,109.28L267.76,110.21L269.87,112.39L262.05,111.35L264.13,113.05L258.54,110.62L262.03,112.1L260.96,112.76L251.25,111.92L249.2,110.93L249.68,109.73L242.91,109.66L241.18,107.34L247.99,107.75L240.39,106.28L239.68,103.68L243.5,96.71L253.05,94.79L248.7,100.01L250.02,101.44L249.58,103.33L253.77,106.51L248.47,107.78L253.87,108.05L254.34,104.85L250.53,103.29L255.56,103.25L251.51,99.24L256.13,99.88L252.1,98.21L256.97,98.81L253.03,97.2L262.59,95.27L266.01,99.98L262.98,102.25L265.32,101.09L264.04,103.86L267.53,102.78L266.21,101.88L267.15,101.05L272.67,104.47L269.83,101.86L274.67,102.75L270.51,101.03L274.96,99.95L280.16,102.2L277.15,103.02L279.41,103.05L277.07,104.71L282.2,103.22L278.99,104.73L280.96,104.84L279.8,106.95L283.41,104.35L281.82,105.95L283.83,105.32L282.98,107.51L286.53,104.85L290.35,106.58L286.48,109.37L291.63,107.4L288.09,110.17L290.22,109.7L289.22,111.8L293.56,108.25L292.07,109.94L297.7,109.49L292.07,112.53L296.86,111.07L293.38,113.44L298.52,110.57L301.03,112.99L293.29,113.8L302.26,115.09L295.96,114.46L298.45,115.01L295.95,115.99L297.67,115.17L299.27,116.7L294.98,116.57L302.23,118.01L299.02,118.66L303.16,119.18L302.01,120.1L302.96,120.46L304.19,119.04L303.97,120.99L307.33,119.65L306.15,120.97L307.99,120.37L309.58,122.19L307.2,122.03L309.43,122.3L307.47,123.26L311.56,122.08L309.81,123.93L312.36,123.4L312.26,124.56L314.43,123.07L316.6,124.51L312.28,125.61L314.79,126.7L311.83,126.34L313.89,127.37L312.34,127.08L312.91,128.16L310.64,126.99L310.57,130.45L305.32,127.6L308.39,125.57L304.27,126.93L305.39,125.42L303.97,126.37L301.17,124.54L299.34,124.8L300.94,125.73L298.69,125.02L300.83,127.06L296.4,126.11L298.59,126.51L297.74,126.63L299.16,127.4L298.58,128.5L300.6,127.97L302.12,130.88L306.36,131.7L304.91,132.36L307.64,133.4L306.69,133.89L307.9,135.68L305.86,133.94L307.66,136.73L305.94,136.44L306.83,137.58L296.02,134.1L304.19,138.86L303.27,139.89L288.76,135.91L287.62,135.08L290.06,134.6L286.22,133.8L284.3,132.45L284.53,131.21L282.46,132.3L280.94,130.43L280.03,130.77L280.85,132.14L271.97,131.98L271.2,131.08L273.62,128.55L277.87,129.35L278.99,131.03L279.47,129.77L277.47,129.05L284.07,128.6L281.41,126.26L285.47,124.23Z M172.47,96.29L162.23,100.48L159.32,102.18L158.31,105.62L152.54,107.36L144.33,103.52L149.94,95.02L147.32,92.07L166.89,92.67L172.47,96.29Z M150.26,171.64L151.15,171.99L150.26,171.64Z M147.56,170.12L149.0,170.65L147.56,170.12Z M142.24,170.03L141.37,169.97L142.24,170.03Z M145.77,168.92L146.54,169.13L145.77,168.92Z M142.35,168.11L143.52,167.94L142.35,168.11Z M151.14,172.77L146.42,172.28L147.18,171.19L145.05,171.79L144.23,170.78L142.47,170.83L143.71,170.25L138.94,169.33L140.22,168.26L137.55,167.89L145.4,168.84L151.14,172.77Z M308.06,144.27L307.04,143.9L308.06,144.27Z M298.98,143.81L297.55,144.62L298.98,143.81Z M271.35,142.85L270.14,143.19L271.35,142.85Z M307.09,141.37L305.38,140.58L307.42,140.46L307.09,141.37Z M306.02,139.7L307.13,140.17L306.02,139.7Z M268.58,138.67L267.31,140.7L265.97,139.89L266.84,138.34L268.58,138.67Z M308.32,137.89L306.76,138.08L308.32,137.89Z M282.62,137.46L280.93,137.31L282.62,137.46Z M292.69,137.63L290.04,136.81L292.69,137.63Z M260.82,136.5L261.49,137.34L258.49,138.91L256.16,138.21L260.82,136.5Z M273.23,135.58L270.55,135.07L273.23,135.58Z M309.1,135.43L308.01,134.55L309.1,135.43Z M275.5,134.96L273.48,134.41L275.5,134.96Z M286.73,134.27L285.91,134.4L286.73,134.27Z M306.96,133.99L308.3,134.19L306.96,133.99Z M272.07,133.46L273.21,133.26L272.07,133.46Z M305.21,131.59L306.11,131.28L305.21,131.59Z M266.18,134.08L263.67,135.03L258.44,132.74L252.6,136.08L251.43,134.06L247.4,134.42L250.15,133.02L250.26,128.81L252.04,127.03L253.52,129.4L254.52,128.51L261.94,131.71L262.38,132.92L261.36,133.35L266.18,134.08Z M253.33,126.74L254.47,128.01L253.33,126.74Z M254.74,126.46L258.1,127.77L254.74,126.46Z M257.94,125.71L258.92,125.85L257.94,125.71Z M313.58,122.62L312.26,123.06L313.58,122.62Z M310.62,122.13L309.78,122.25L310.62,122.13Z M284.38,120.26L280.6,119.55L284.38,120.26Z M303.21,118.65L302.24,118.88L303.21,118.65Z M249.13,118.57L248.85,120.63L248.03,119.34L249.13,118.57Z M279.91,119.01L279.83,121.3L278.41,122.17L274.72,122.42L273.81,120.73L275.5,118.68L279.91,119.01Z M270.36,117.76L269.41,117.88L270.36,117.76Z M280.41,117.48L281.29,117.54L280.41,117.48Z M280.43,118.08L278.93,117.37L280.43,118.08Z M298.65,116.75L297.44,116.66L298.65,116.75Z M269.12,116.33L271.43,114.68L269.12,116.33Z M275.49,114.26L273.63,114.83L275.49,114.26Z M300.15,113.54L299.33,113.81L300.15,113.54Z M298.91,113.77L297.85,113.54L298.91,113.77Z M270.95,113.32L269.65,113.98L270.95,113.32Z M266.74,113.38L264.5,113.13L266.74,113.38Z M256.44,112.91L257.26,112.75L256.44,112.91Z M247.78,111.94L249.44,111.83L247.78,111.94Z M289.31,107.66L287.39,108.07L289.31,107.66Z M285.46,105.5L284.32,105.5L285.46,105.5Z M286.03,104.87L285.22,105.2L286.03,104.87Z M221.14,98.08L222.48,98.49L221.14,98.08Z M191.77,95.89L193.12,95.84L191.77,95.89Z M200.85,95.69L199.24,99.44L194.56,96.41L200.85,95.69Z M264.26,95.8L271.7,95.52L277.18,99.21L267.82,99.87L264.26,95.8Z M223.14,101.24L221.66,101.88L222.43,104.16L217.88,103.8L218.56,105.44L216.72,106.57L205.98,99.63L213.14,99.27L211.85,97.63L213.95,97.73L209.0,96.37L212.16,96.78L210.97,94.69L219.27,94.26L221.5,95.41L217.48,99.34L220.65,98.92L223.14,101.24Z M215.34,94.58L219.62,93.48L215.34,94.58Z M239.22,94.23L234.41,99.94L228.48,99.85L230.76,101.25L229.17,103.43L226.1,103.39L227.23,102.64L224.75,98.75L224.75,95.39L227.67,95.57L225.78,94.26L227.41,93.34L239.22,94.23Z M219.37,91.44L220.64,90.78L219.37,91.44Z M225.7,90.82L224.35,90.87L225.7,90.82Z M203.63,87.57L200.19,87.89L203.63,87.57Z M230.83,88.95L227.4,90.6L222.36,88.7L226.93,85.12L230.83,88.95Z M222.47,86.27L224.24,85.58L222.47,86.27Z M157.34,83.5L156.55,84.47L157.34,83.5Z M205.67,84.43L208.05,83.38L205.67,84.43Z M228.04,83.22L226.91,83.46L228.04,83.22Z M206.48,83.14L202.73,83.42L206.48,83.14Z M165.91,83.69L161.58,85.36L165.91,83.69Z M269.61,82.39L267.33,83.77L269.61,82.39Z M203.17,82.91L206.58,82.19L203.17,82.91Z M201.61,80.36L205.31,80.63L201.61,80.36Z M220.2,85.81L218.56,86.01L219.82,87.84L218.73,88.57L214.28,88.78L211.41,86.27L216.25,84.75L205.65,85.27L210.9,84.16L207.91,80.7L213.47,83.81L214.83,83.26L212.74,82.32L214.88,82.15L210.7,80.14L217.45,79.09L219.56,80.26L219.81,83.87L218.83,84.55L220.2,85.81Z M210.24,79.69L212.67,78.74L210.24,79.69Z M240.87,78.78L238.41,78.67L240.87,78.78Z M198.95,84.95L197.31,88.35L180.17,91.74L174.87,90.23L184.13,87.29L166.16,87.24L173.33,84.81L167.34,85.31L173.79,83.79L168.7,83.46L174.22,82.15L170.86,81.44L173.67,80.06L180.2,82.11L183.33,85.8L189.57,86.04L186.52,83.69L188.47,82.44L185.61,80.79L189.93,77.98L191.78,81.44L190.67,82.87L192.93,83.07L191.93,84.31L194.98,85.09L196.43,82.75L198.95,84.95Z M173.77,78.62L177.46,78.53L173.77,78.62Z M267.84,88.7L261.9,91.51L257.36,89.13L255.31,91.26L243.95,91.28L243.89,89.16L235.96,90.53L233.32,87.47L234.33,83.82L231.84,81.07L225.63,81.72L221.43,78.74L224.61,76.67L230.21,77.67L231.52,78.86L230.5,80.8L237.54,79.32L242.15,81.66L235.7,81.55L239.5,82.71L236.99,84.04L240.1,83.01L242.89,86.31L263.7,84.36L267.8,86.19L265.48,88.43L267.84,88.7Z M161.82,81.94L158.97,84.2L157.69,81.94L151.89,82.59L162.14,75.16L172.29,75.22L169.6,76.3L170.95,78.99L167.64,81.42L165.18,80.71L165.69,78.23L161.82,81.94Z M252.9,74.27L251.89,73.74L252.9,74.27Z M240.9,74.92L236.78,73.52L240.9,74.92Z M201.61,75.95L197.08,72.51L201.61,75.95Z M231.33,73.07L223.12,73.29L231.33,73.07Z M273.14,71.68L272.12,71.82L273.14,71.68Z M206.8,72.45L210.85,72.42L206.8,72.45Z M176.84,71.61L173.02,71.0L176.84,71.61Z M187.72,70.23L184.26,71.7L186.38,72.21L186.04,73.97L181.36,75.09L177.8,72.0L187.72,70.23Z M205.6,68.87L204.58,69.64L205.6,68.87Z M245.18,67.65L244.25,68.98L245.18,67.65Z M188.64,67.6L177.77,68.45L184.69,65.5L188.64,67.6Z M281.18,65.33L282.22,65.72L281.18,65.33Z M221.57,72.08L219.27,70.45L221.68,69.81L218.88,69.24L217.72,65.39L227.13,68.26L225.59,69.15L226.5,70.91L221.57,72.08Z M198.38,63.0L208.94,63.17L216.14,70.27L213.5,72.17L201.42,68.87L199.95,67.15L204.46,65.57L198.38,63.0Z M212.93,56.15L216.93,57.77L212.93,56.15Z M224.39,50.73L226.74,50.85L224.39,50.73Z M222.34,55.77L228.31,56.23L222.17,53.33L229.9,51.78L225.37,48.54L231.31,44.32L243.9,55.33L244.94,55.3L243.62,52.89L246.13,52.76L245.16,55.12L248.1,56.86L246.77,59.76L253.57,61.76L246.27,66.31L245.34,65.12L246.06,63.15L244.87,63.79L244.38,66.21L245.57,66.95L243.19,66.55L243.17,69.61L239.98,66.52L241.34,69.68L234.6,69.31L232.08,67.39L235.6,66.86L228.55,63.85L239.02,61.93L226.1,61.69L224.7,59.71L228.53,57.91L224.39,58.86L222.34,55.77Z M317.11,38.3L308.34,41.0L295.18,41.03L302.38,42.99L293.28,46.76L307.49,44.16L294.22,53.24L291.18,51.43L292.91,54.58L286.99,54.29L291.96,55.3L290.29,57.8L271.84,61.12L281.42,62.09L269.61,63.25L280.98,66.69L275.57,67.12L279.92,68.45L271.42,70.71L272.76,73.29L270.16,75.15L261.5,72.8L263.54,75.07L261.71,76.09L272.76,78.24L263.81,82.36L264.61,80.65L259.39,78.25L260.58,80.77L257.6,78.61L258.07,80.7L255.22,79.2L252.79,81.45L249.13,79.33L244.26,80.81L243.98,78.23L243.74,80.71L242.21,80.63L241.23,78.03L249.06,76.04L244.74,71.64L254.76,75.26L260.48,70.17L256.22,74.04L251.52,71.16L255.93,69.52L253.42,69.28L254.27,66.62L252.02,70.02L246.62,69.83L249.04,65.13L260.42,66.83L257.97,64.94L262.72,63.4L253.99,63.47L257.7,63.35L249.4,58.02L252.66,56.72L249.32,53.62L265.1,59.5L267.33,58.44L262.6,58.35L258.12,53.5L271.86,51.44L266.76,51.03L275.96,48.97L269.5,48.78L275.35,43.7L264.33,50.65L253.01,51.99L248.67,51.14L251.2,48.18L260.31,46.04L246.12,50.79L241.51,48.34L254.0,45.03L240.46,47.59L242.84,45.47L240.2,44.61L247.16,42.97L234.78,41.62L245.15,38.3L254.39,39.36L248.32,38.3L254.11,38.3L268.72,40.1L259.44,38.3L262.72,38.3L260.34,38.3L270.54,38.3L265.6,38.3L268.43,38.3L276.75,38.3L278.93,38.3L274.31,38.3L286.42,38.3L283.59,38.3L285.41,38.3L294.17,38.3L303.2,38.3L297.02,38.3L307.48,38.3L317.11,38.3Z M266.73,155.19L267.88,154.37L266.73,155.19Z M320.55,181.88L319.65,181.89L320.55,181.88Z M283.05,178.78L283.83,178.48L283.05,178.78Z M284.0,178.46L282.74,178.99L284.0,178.46Z M291.08,175.8L290.33,176.11L291.08,175.8Z M319.78,178.3L316.57,178.78L315.86,177.84L318.94,175.81L318.86,177.31L316.94,178.46L319.24,177.22L320.51,177.54L319.78,178.3Z M314.66,176.95L312.66,177.98L308.22,176.51L309.34,175.73L309.51,176.92L314.66,176.95Z M315.54,174.74L314.64,175.4L315.54,174.74Z M308.48,170.02L315.57,171.39L308.48,170.02Z M264.64,163.06L261.17,162.82L264.64,163.06Z M268.57,158.36L267.25,158.67L268.57,158.36Z M273.83,156.64L272.94,157.11L273.83,156.64Z M267.88,155.59L266.6,155.94L268.79,153.98L269.65,154.88L268.79,156.05L269.39,154.72L267.88,155.59Z M259.98,112.75L259.05,112.73L259.98,112.75Z"/>
    <path data-country="Chile" d="M294.64,274.7L297.47,277.53L296.63,278.98L298.97,282.57L301.3,282.84L300.37,284.4L297.14,285.53L297.79,289.04L294.26,291.16L293.77,293.97L291.89,295.63L293.79,300.66L291.79,302.39L292.3,303.76L290.15,305.11L291.1,308.17L288.76,309.99L288.7,314.55L287.6,315.5L288.69,316.64L288.37,318.92L290.34,319.26L287.76,319.71L289.82,320.66L288.63,321.27L288.83,323.51L287.04,325.06L286.42,327.85L283.77,329.42L284.86,332.06L287.19,331.84L286.8,333.84L288.09,334.78L297.47,335.55L291.03,336.48L289.91,339.19L286.79,338.07L288.5,338.33L290.35,336.94L289.6,336.5L286.5,337.31L287.49,337.54L286.28,337.86L287.03,338.37L284.53,337.48L286.08,337.8L285.44,336.72L289.14,336.12L285.71,335.98L284.8,337.37L283.83,336.66L285.58,335.97L283.47,336.47L283.37,334.91L285.69,335.42L285.86,334.7L286.57,335.34L285.52,335.86L286.61,335.86L286.75,334.37L284.64,333.66L286.53,334.26L284.59,333.96L285.55,334.52L284.74,335.05L284.3,334.06L284.49,335.22L282.93,334.0L283.48,332.92L281.98,332.48L283.83,331.31L282.55,332.22L282.62,331.22L280.81,330.82L283.05,331.05L281.69,330.32L282.97,330.59L281.74,329.98L283.43,329.92L282.34,329.19L283.14,328.38L282.02,329.41L281.42,328.36L282.95,327.05L280.98,326.27L284.73,326.2L283.41,325.22L280.71,325.61L282.55,325.39L281.26,325.02L282.74,324.66L282.33,323.79L279.98,323.64L280.18,323.0L278.91,324.0L278.11,323.44L281.71,321.7L282.75,322.29L281.36,322.5L283.36,323.19L284.84,321.45L283.76,321.68L283.97,321.03L285.78,320.96L284.27,320.11L286.41,319.17L284.56,318.48L285.8,317.82L285.11,316.88L286.56,315.44L285.75,314.91L286.88,315.22L285.63,314.22L287.19,313.24L283.96,314.03L282.83,312.63L284.73,309.66L283.52,305.99L284.78,305.66L289.0,299.5L289.27,292.02L291.65,287.95L291.73,283.21L293.18,280.49L292.28,275.92L294.64,274.7Z M296.95,341.37L287.98,340.66L292.98,340.76L290.85,339.73L296.01,340.57L292.86,339.07L295.06,337.95L292.07,337.84L293.1,336.92L292.22,336.57L294.89,335.87L296.99,336.3L296.95,341.37Z M300.0,343.86L298.9,343.9L300.0,343.86Z M298.67,343.38L293.25,342.21L297.49,341.71L295.85,342.0L298.67,343.38Z M298.98,342.44L297.75,341.66L301.19,342.08L298.98,342.44Z M292.55,342.05L290.63,341.77L292.55,342.05Z M293.59,341.84L295.56,341.74L293.59,341.84Z M292.21,341.48L291.34,341.54L292.21,341.48Z M290.71,341.68L289.44,341.56L290.71,341.68Z M288.98,339.65L290.69,340.09L288.98,339.65Z M287.96,339.94L287.31,339.29L288.93,339.29L287.96,339.94Z M292.12,338.55L292.42,339.53L291.14,339.73L292.12,338.55Z M284.29,338.08L283.19,338.13L284.29,338.08Z M286.59,339.64L283.69,338.55L286.76,338.46L287.63,338.98L286.59,339.64Z M284.18,336.81L283.17,336.93L284.18,336.81Z M284.78,337.86L280.67,336.56L284.78,337.86Z M283.1,336.44L282.18,336.18L283.4,335.76L283.1,336.44Z M280.87,335.73L280.24,335.3L280.87,335.73Z M283.28,335.7L282.42,335.22L283.28,335.7Z M282.34,335.74L281.56,335.13L282.34,335.74Z M283.45,335.27L282.41,334.68L283.45,335.27Z M281.51,334.49L282.41,334.57L281.51,334.49Z M280.29,334.85L280.36,333.99L280.29,334.85Z M279.94,333.34L279.17,334.01L279.94,333.34Z M282.0,333.13L281.73,332.45L282.0,333.13Z M281.64,332.57L280.09,332.5L281.64,332.57Z M279.66,331.5L278.77,332.09L279.66,331.5Z M281.84,332.25L280.87,331.46L281.84,332.25Z M279.89,331.05L278.93,330.51L279.89,331.05Z M280.26,328.45L279.37,328.6L280.26,328.45Z M278.51,328.81L279.1,328.27L278.51,328.81Z M279.43,328.32L278.25,328.1L279.43,328.32Z M279.47,329.93L278.77,328.94L280.28,329.06L279.85,327.9L281.22,327.67L281.4,330.31L280.23,330.27L280.94,329.03L279.47,329.93Z M279.1,327.5L278.27,327.82L279.1,327.5Z M279.12,327.35L278.2,327.41L279.12,327.35Z M281.34,327.41L279.91,327.25L280.7,326.45L281.34,327.41Z M279.57,326.81L280.52,326.56L279.57,326.81Z M279.6,327.57L278.53,326.31L279.6,327.57Z M279.28,326.25L280.73,326.41L279.28,326.25Z M281.56,326.06L283.18,325.96L281.56,326.06Z M280.66,321.73L279.8,322.31L280.66,321.73Z M281.33,321.59L281.94,321.11L281.33,321.59Z M283.56,321.0L283.52,321.63L283.56,321.0Z M283.13,320.66L282.22,320.63L283.13,320.66Z M283.38,320.56L282.0,320.35L283.38,320.56Z M281.95,320.03L282.9,320.04L281.95,320.03Z M282.86,319.41L281.56,319.52L282.86,319.41Z M284.31,319.33L286.08,319.21L284.65,320.02L284.31,319.33Z M282.28,317.86L283.3,317.98L282.28,317.86Z M281.77,316.81L282.5,314.03L283.83,314.03L283.99,316.52L281.77,316.81Z"/>
    <path data-country="Colombia" d="M269.79,248.01L270.47,246.62L272.64,246.4L274.58,244.56L273.51,244.4L273.75,240.86L272.28,239.92L274.23,238.94L273.51,237.97L275.31,238.96L274.81,238.09L278.34,236.81L279.29,234.92L280.42,234.47L281.61,234.98L282.26,234.14L284.55,234.21L287.63,232.85L289.97,232.72L290.3,233.19L286.18,234.83L284.29,237.21L285.89,237.29L288.02,240.24L292.99,240.29L295.34,241.54L300.13,241.37L299.0,243.7L300.51,245.3L299.05,246.12L300.83,246.67L301.64,248.12L300.2,247.03L298.86,247.58L293.72,247.63L293.73,248.53L295.63,249.1L293.19,249.18L294.93,251.64L293.43,255.89L291.38,255.26L293.05,253.65L288.68,252.96L285.51,253.37L280.47,250.24L276.53,249.36L273.61,249.46L269.79,248.01Z"/>
    <path data-country="Corea del Sur" d="M822.31,191.76L825.15,194.49L825.21,197.18L817.39,199.24L816.68,197.84L818.32,196.24L816.34,195.03L818.78,194.63L817.43,193.27L822.31,191.76Z M818.52,200.61L816.43,200.9L818.52,200.61Z"/>
    <path data-country="Costa Rica" d="M256.81,234.72L259.83,236.69L258.82,236.81L258.94,238.8L254.04,236.09L252.56,235.64L253.69,236.28L253.02,236.67L251.08,235.71L251.74,234.33L256.81,234.72Z"/>
    <path data-country="Croacia" d="M524.04,176.87L527.62,178.34L530.4,178.02L531.75,179.46L530.37,180.13L522.11,179.49L521.94,180.32L527.03,183.82L522.56,182.76L518.86,179.28L517.08,180.31L516.26,179.58L516.02,178.85L520.87,178.97L521.71,177.46L524.04,176.87Z M529.17,184.56L525.34,183.63L529.17,184.56Z M527.09,184.21L526.2,184.12L527.09,184.21Z M525.68,183.78L524.35,183.76L525.68,183.78Z M524.52,183.48L525.85,183.48L524.52,183.48Z M524.0,183.18L525.05,183.13L524.0,183.18Z M520.39,181.91L519.6,181.47L520.39,181.91Z M519.67,180.72L520.68,181.15L519.67,180.72Z M518.7,180.52L518.17,179.52L518.7,180.52Z M519.26,179.97L518.8,179.37L519.26,179.97Z"/>
    <path data-country="Dinamarca" d="M503.1,158.4L502.98,157.08L501.59,156.81L501.81,154.01L504.87,154.37L504.53,153.34L506.44,153.03L501.99,153.66L508.4,151.28L507.59,153.15L506.47,153.03L507.57,153.9L506.15,154.09L509.1,154.86L505.48,156.41L505.99,158.55L503.1,158.4Z M511.59,158.8L509.33,158.66L511.59,158.8Z M513.11,158.08L512.31,158.37L513.11,158.08Z M506.7,158.21L505.68,158.01L506.7,158.21Z M508.95,158.04L508.52,158.79L508.95,158.04Z M520.4,157.83L519.16,157.9L520.4,157.83Z M508.44,157.99L505.8,156.94L508.34,156.65L508.44,157.99Z M512.11,158.41L511.86,159.19L509.0,156.33L513.66,155.59L512.11,158.41Z M503.54,153.83L502.71,153.85L503.54,153.83Z"/>
    <path data-country="Ecuador" d="M269.79,248.01L273.61,249.46L276.53,249.36L279.24,250.15L278.28,250.18L279.39,251.35L277.09,252.96L271.06,254.71L269.16,256.97L265.35,256.14L267.29,252.79L265.99,253.79L263.97,253.01L266.46,248.87L269.79,248.01Z M266.51,253.7L265.96,254.19L266.51,253.7Z M241.85,250.95L240.99,251.29L241.85,250.95Z M239.49,250.75L238.55,250.95L239.49,250.75Z M236.26,250.63L235.55,250.4L236.26,250.63Z M238.49,250.4L237.67,250.38L238.49,250.4Z M237.84,251.01L236.17,251.39L237.1,250.81L236.01,249.85L237.84,251.01Z"/>
    <path data-country="El Salvador" d="M239.74,230.74L241.6,229.72L246.12,230.62L245.52,231.56L239.74,230.74Z"/>
    <path data-country="España" d="M475.22,182.99L478.48,184.16L488.48,184.8L488.52,185.82L481.9,187.8L479.14,190.16L480.63,191.55L474.33,195.07L468.26,195.09L465.04,196.33L462.95,195.24L463.48,194.73L460.23,194.28L461.4,191.06L459.85,189.87L461.28,189.84L461.49,187.43L463.45,186.41L462.37,185.68L456.32,185.81L457.01,184.96L455.42,183.43L459.51,182.21L475.22,182.99Z M438.96,209.42L437.81,209.59L438.96,209.42Z M436.19,209.23L434.89,208.9L436.96,208.54L436.19,209.23Z M442.74,208.3L442.84,209.08L441.31,209.35L442.74,208.3Z M432.65,208.17L432.43,208.75L432.65,208.17Z M444.05,207.5L443.02,208.1L444.05,207.5Z M484.28,190.93L483.24,191.29L484.28,190.93Z M488.95,189.68L488.16,190.61L486.27,190.06L488.95,189.68Z M491.47,189.42L490.14,189.26L491.47,189.42Z"/>
    <path data-country="Estados Unidos" d="M152.66,171.73L226.19,171.73L226.24,170.93L227.75,172.29L235.8,173.71L244.33,173.17L255.71,176.82L256.97,178.33L259.87,179.2L260.94,182.62L258.24,185.52L259.55,186.23L269.28,184.1L268.87,182.84L270.0,182.55L275.09,182.53L280.26,179.85L290.95,179.4L295.37,174.92L299.16,175.7L299.18,178.45L301.39,180.22L297.22,181.35L296.53,180.72L295.49,181.9L292.57,182.48L290.54,185.01L293.5,186.22L290.17,186.6L289.62,185.95L289.34,186.79L282.95,187.82L282.73,186.92L281.56,190.45L280.12,191.22L278.51,189.99L279.94,189.26L278.42,189.92L279.88,192.11L277.47,194.4L278.31,192.93L276.33,191.37L277.78,190.04L275.67,190.62L276.47,192.79L273.99,192.17L274.48,191.26L273.75,192.25L276.67,193.03L275.99,193.47L274.31,192.57L276.61,194.49L273.94,194.06L277.32,194.73L278.6,196.7L277.47,195.1L277.91,196.2L275.39,195.79L275.39,196.44L278.08,196.64L276.93,197.46L274.53,197.14L276.08,197.59L274.83,198.08L276.41,198.25L273.51,198.47L272.15,199.85L269.96,200.1L265.19,202.59L264.39,202.16L264.86,202.69L262.69,204.08L266.56,211.32L265.59,213.83L263.73,213.93L262.05,212.7L261.92,211.47L261.23,211.76L261.39,211.04L260.5,211.26L259.39,210.23L260.21,209.59L259.09,209.73L259.64,208.06L256.85,206.41L252.41,206.8L251.77,205.76L247.92,205.31L245.25,205.93L245.25,205.1L244.97,205.77L238.92,205.93L241.69,206.21L240.65,206.87L242.64,207.61L241.56,208.0L240.49,207.13L237.64,207.67L235.07,206.56L233.83,207.03L229.72,206.31L227.3,207.3L228.04,206.98L226.53,206.69L226.24,207.81L223.42,208.69L222.26,208.31L222.92,208.78L219.94,209.66L220.24,210.51L219.27,210.3L220.36,212.82L215.72,211.93L214.63,210.11L209.59,206.64L207.14,206.46L204.3,207.84L196.29,203.46L183.82,204.13L174.07,201.87L167.67,202.17L163.96,199.7L158.3,198.79L158.28,197.81L153.28,193.69L154.58,193.81L153.69,192.84L156.15,192.86L151.93,192.87L148.24,188.48L149.15,186.47L147.82,184.04L149.15,182.37L149.27,177.42L151.52,177.52L149.12,177.34L149.83,175.95L148.86,176.01L147.39,173.0L152.61,173.51L151.57,175.13L153.26,174.0L153.15,175.32L151.79,175.6L152.74,175.68L154.16,173.75L152.66,171.73Z M103.99,113.31L104.01,144.35L109.12,144.25L113.37,148.21L116.64,146.25L119.77,146.29L128.47,154.21L133.14,155.49L133.36,157.46L131.49,158.72L130.64,158.14L132.1,157.34L130.51,157.84L131.7,157.43L130.64,155.42L127.54,156.71L129.36,155.14L123.86,152.72L125.23,152.24L123.6,151.37L125.32,151.85L123.86,150.82L125.0,150.97L122.51,150.41L123.28,149.21L120.65,149.59L119.07,146.66L119.75,149.97L117.57,149.59L117.94,148.19L114.54,147.75L117.17,149.34L115.56,150.02L107.05,146.45L108.07,145.22L108.56,146.37L109.61,145.72L107.94,145.06L105.81,146.03L102.99,144.8L95.33,145.11L93.49,144.34L94.34,143.19L90.83,143.92L91.66,143.29L88.81,143.11L90.42,142.83L88.71,142.6L89.93,142.03L85.88,142.87L86.05,141.57L83.46,142.97L84.81,143.44L83.49,143.92L85.5,143.91L84.17,145.31L81.58,144.86L81.26,145.98L74.95,147.34L77.35,145.81L75.01,145.89L76.27,143.13L82.6,142.79L79.82,141.93L81.52,140.9L71.78,144.36L72.75,145.43L68.64,147.54L71.3,148.32L62.53,153.22L57.52,154.6L58.35,155.11L57.53,155.68L49.01,156.65L48.0,157.92L46.28,157.42L46.51,158.24L44.42,158.61L48.53,155.97L52.68,156.25L51.79,155.72L52.83,154.73L60.23,151.92L59.72,150.32L60.96,150.15L59.83,149.64L61.91,147.52L58.12,148.97L57.34,147.95L58.68,148.18L57.22,147.46L56.32,149.54L52.39,147.75L47.53,148.89L49.15,147.63L48.07,147.58L48.76,146.57L46.78,144.38L48.32,143.22L46.12,144.46L46.6,145.21L42.4,145.66L38.85,143.65L43.83,142.63L39.54,142.55L40.62,142.07L39.03,141.77L40.74,140.57L39.0,142.17L36.8,140.66L39.65,137.93L41.11,138.2L40.31,136.94L41.54,135.82L50.52,134.68L50.74,132.55L49.23,132.08L51.22,131.02L45.92,132.25L36.83,131.47L34.78,129.53L37.25,129.32L31.63,127.91L41.94,124.69L43.66,124.8L42.16,126.11L43.31,126.46L50.42,126.34L46.71,123.43L52.72,125.35L49.35,124.92L48.26,124.22L49.27,123.32L47.04,122.69L43.4,122.89L42.26,121.06L35.12,118.34L36.74,116.31L43.67,115.4L48.25,110.59L53.47,109.44L53.94,111.1L55.22,109.69L52.99,109.32L54.22,108.57L62.74,105.96L65.14,107.09L64.06,108.76L66.43,107.07L73.79,108.35L74.47,109.52L72.99,109.6L74.72,110.06L98.04,111.42L103.99,113.31Z M126.13,158.87L124.85,157.58L126.13,158.87Z M124.52,156.2L123.51,156.22L124.52,156.2Z M130.77,156.72L130.15,157.7L129.73,156.57L128.48,157.02L129.92,155.78L130.77,156.72Z M123.71,155.5L124.57,155.33L123.71,155.5Z M126.54,154.94L127.64,155.87L126.54,154.94Z M128.06,158.56L124.77,157.47L125.58,156.6L124.32,156.61L124.96,156.0L123.69,154.82L126.64,156.12L127.63,157.02L126.18,157.04L128.02,157.5L128.06,158.56Z M126.37,154.7L125.19,154.84L126.37,154.7Z M127.99,154.85L127.0,154.48L127.99,154.85Z M68.2,154.21L67.22,154.62L68.2,154.21Z M125.44,153.72L126.58,154.24L125.44,153.72Z M122.97,154.47L122.27,155.67L121.58,153.56L123.42,153.76L122.97,154.47Z M122.9,152.97L125.51,154.09L124.41,153.59L125.12,154.37L123.68,154.59L122.9,152.97Z M72.25,152.76L70.9,152.98L72.25,152.76Z M118.4,152.74L117.76,153.21L118.4,152.74Z M121.01,153.83L120.63,155.14L118.2,152.26L120.01,152.16L121.01,153.83Z M74.24,151.57L69.37,153.83L70.03,152.84L68.01,152.89L69.06,152.89L68.52,153.55L67.17,152.29L68.75,151.44L70.32,152.49L69.53,151.09L71.52,151.35L71.24,150.57L74.24,151.57Z M70.88,150.42L72.29,150.6L70.88,150.42Z M117.74,152.17L116.38,150.02L120.2,150.52L117.63,150.6L120.5,151.9L117.83,151.21L117.74,152.17Z M121.07,149.97L121.98,150.08L121.07,149.97Z M121.72,152.94L120.1,149.53L123.23,151.67L121.85,150.34L123.09,151.99L121.72,152.94Z M74.76,149.72L71.39,150.15L74.76,149.72Z M72.95,149.23L73.74,148.93L72.95,149.23Z M95.09,145.24L94.39,145.72L95.09,145.24Z M87.71,144.4L85.56,145.77L87.71,144.4Z M90.16,144.08L88.74,144.12L90.16,144.08Z M91.31,143.44L89.78,143.9L91.31,143.44Z M47.09,134.6L46.09,134.68L47.09,134.6Z M102.87,113.02L101.6,112.61L102.87,113.02Z M46.71,111.19L47.57,110.8L46.71,111.19Z M49.2,110.57L48.06,110.62L49.2,110.57Z M83.15,109.97L81.83,109.66L83.15,109.97Z M265.81,213.74L265.07,214.2L265.81,213.74Z M220.8,212.15L220.33,210.71L220.8,212.15Z M221.13,209.76L220.27,210.67L221.13,209.76Z M265.63,209.91L266.23,210.76L265.63,209.91Z M221.65,209.26L221.24,209.7L221.65,209.26Z M222.86,208.84L221.77,209.35L222.86,208.84Z M264.86,208.55L264.93,209.11L264.86,208.55Z M227.16,207.32L226.36,207.74L227.16,207.32Z M254.03,206.71L253.07,206.88L254.03,206.71Z M248.82,205.63L247.21,205.75L248.82,205.63Z M164.38,201.68L163.71,201.35L164.38,201.68Z M161.25,199.69L160.18,199.63L161.25,199.69Z M276.65,198.2L275.92,198.74L276.65,198.2Z M278.73,196.86L278.04,197.73L278.73,196.86Z M279.59,192.5L278.95,193.1L279.59,192.5Z M284.65,188.13L283.8,188.24L284.65,188.13Z M285.65,187.95L284.52,188.14L285.65,187.95Z M288.22,187.34L282.56,188.16L288.22,187.34Z M153.71,173.86L152.92,173.0L153.71,173.86Z M5.87,165.62L4.76,165.44L5.87,165.62Z M7.67,165.31L6.12,165.83L7.67,165.31Z M9.5,165.63L8.06,166.06L9.5,165.63Z M18.34,164.91L15.84,164.88L18.34,164.91Z M15.86,164.61L12.43,165.12L15.86,164.61Z M27.5,163.17L26.64,163.28L27.5,163.17Z M32.38,161.97L29.04,163.28L32.38,161.97Z M36.55,161.18L32.4,162.16L35.2,161.41L34.61,160.63L36.55,161.18Z M38.03,160.24L37.01,160.26L38.03,160.24Z M53.6,157.81L52.7,158.42L53.6,157.81Z M66.93,222.28L64.32,223.07L64.32,221.27L66.93,222.28Z M64.0,220.45L62.14,220.28L64.0,220.45Z M62.0,219.9L60.52,219.99L62.0,219.9Z M59.45,219.63L57.92,219.3L59.45,219.63Z M55.2,218.44L53.9,218.64L55.2,218.44Z M958.4,166.48L956.36,165.97L958.4,166.48Z M953.71,164.88L952.6,165.4L953.71,164.88Z M943.44,164.02L942.37,164.24L943.44,164.02Z M942.34,163.27L939.94,163.05L942.34,163.27Z M45.14,158.9L40.11,159.15L43.32,158.0L45.14,158.9Z M52.01,157.68L51.06,157.34L52.01,157.68Z M38.45,145.34L33.46,144.59L36.91,143.98L38.45,145.34Z M20.54,144.22L18.51,143.8L20.54,144.22Z M25.88,135.72L24.78,135.24L25.88,135.72Z M30.02,135.6L27.56,136.63L21.73,134.85L30.02,135.6Z M35.04,126.63L34.03,127.08L35.04,126.63Z M36.58,126.08L35.2,126.59L36.58,126.08Z M40.63,124.88L39.14,125.25L40.63,124.88Z"/>
    <path data-country="Francia" d="M335.7,247.06L334.36,246.77L335.99,245.2L334.7,243.18L336.18,242.01L338.94,242.48L342.27,244.23L339.49,246.7L335.7,247.06Z M486.72,167.2L491.02,169.63L492.84,169.22L494.55,170.65L501.87,171.8L500.23,174.67L498.6,174.86L495.88,177.48L498.1,177.05L499.1,179.05L497.61,179.66L498.31,181.09L500.51,181.68L496.48,183.66L490.54,182.69L487.1,184.97L476.11,183.64L475.21,183.01L477.21,180.51L476.98,178.87L478.68,179.87L476.67,178.46L477.04,177.27L474.35,176.23L474.24,175.31L475.39,175.43L468.34,174.21L467.39,173.72L468.83,173.17L467.29,172.72L476.38,172.46L474.84,170.17L481.1,170.75L480.5,170.21L484.46,169.16L484.21,167.68L486.72,167.2Z M317.84,229.7L316.75,229.15L317.84,229.7Z M315.86,227.07L315.48,227.56L315.86,227.07Z M315.88,227.07L316.9,227.12L315.88,227.07Z M628.77,280.0L627.27,279.89L628.77,280.0Z M502.84,185.22L505.24,183.74L504.6,186.78L502.84,185.22Z"/>
    <path data-country="Ghana" d="M479.56,234.44L481.9,238.43L481.38,240.47L483.16,241.51L474.72,243.39L471.68,242.92L472.72,242.53L471.36,240.52L473.32,238.56L472.43,234.63L479.56,234.44Z"/>
    <path data-country="Guatemala" d="M241.7,229.76L239.74,230.74L234.01,229.58L235.36,227.4L238.83,227.34L236.15,225.69L237.35,225.67L237.38,224.85L242.24,224.85L242.04,227.64L244.74,227.88L241.7,229.76Z"/>
    <path data-country="Honduras" d="M241.7,229.76L242.24,228.84L246.42,227.58L253.33,227.5L258.32,228.93L253.59,229.19L251.35,230.61L248.62,230.72L247.91,231.82L245.82,231.21L245.82,230.48L241.7,229.76Z M249.05,227.07L250.18,226.86L249.05,227.07Z"/>
    <path data-country="Inglaterra" d="M460.67,157.98L463.73,157.63L465.51,159.45L463.89,160.45L459.1,160.06L458.2,159.44L460.67,157.98Z M472.89,166.02L465.84,165.46L469.47,163.91L469.13,163.05L467.3,163.36L468.86,162.37L472.8,162.06L471.73,161.58L472.54,159.95L470.31,159.32L471.94,158.21L466.25,158.44L467.69,156.94L466.97,155.9L468.05,155.87L467.32,155.18L465.48,155.63L464.58,157.39L465.14,154.88L466.68,153.9L463.37,153.87L465.6,152.91L464.5,151.03L466.48,151.03L465.47,150.37L466.84,150.01L466.7,148.93L471.95,148.9L468.29,150.84L469.92,150.97L468.67,151.9L475.12,151.6L473.29,154.22L471.14,154.78L473.13,155.0L469.77,155.43L474.3,155.91L476.79,159.05L479.8,160.28L480.35,161.54L478.06,161.25L480.59,161.9L480.03,163.14L484.66,163.74L484.22,164.97L481.03,166.38L483.69,167.05L480.72,167.94L476.09,167.57L464.79,169.46L468.72,166.96L471.94,166.96L472.89,166.02Z M477.11,168.02L475.81,168.14L477.11,168.02Z M469.07,162.16L467.81,161.97L469.07,162.16Z M466.48,156.91L465.62,156.57L466.48,156.91Z M463.92,156.37L462.66,156.48L463.92,156.37Z M464.54,155.42L463.83,156.17L464.54,155.42Z M464.83,154.61L463.02,154.89L464.83,154.61Z M460.99,151.5L459.88,151.66L460.99,151.5Z M462.5,152.29L463.17,151.37L464.94,152.5L462.5,152.29Z M461.45,151.26L461.03,150.12L463.41,149.28L461.45,151.26Z M472.73,148.02L471.02,147.89L472.73,148.02Z M477.07,144.04L476.6,145.6L475.49,144.4L477.07,144.04Z"/>
    <path data-country="Irán" d="M599.49,189.94L603.0,191.33L607.92,189.82L608.9,190.41L607.98,191.36L610.33,192.1L611.02,193.53L618.42,195.34L624.04,194.93L623.77,194.02L627.01,192.95L632.47,192.37L638.17,193.69L640.91,195.24L643.11,195.25L643.44,197.12L641.31,199.5L642.46,200.55L641.5,201.3L642.19,203.87L644.87,204.65L642.25,206.51L645.05,208.61L647.36,209.08L648.44,211.58L644.89,212.23L643.76,214.03L634.86,213.25L632.83,212.91L631.49,210.81L626.11,211.81L623.24,211.48L617.07,209.57L613.53,205.97L612.09,206.25L610.62,205.46L609.24,206.31L607.13,204.68L607.56,203.36L606.43,202.4L602.93,201.48L601.01,199.78L603.54,196.68L600.85,196.35L597.87,193.05L598.56,192.27L597.37,190.42L599.49,189.94Z M629.9,211.03L627.44,211.73L629.9,211.03Z"/>
    <path data-country="Italia" d="M498.73,178.03L502.4,176.97L504.01,178.24L504.75,176.88L506.87,177.44L507.88,176.14L512.48,175.69L516.54,176.84L515.64,177.3L516.93,178.71L514.98,178.34L512.41,179.25L513.42,179.92L512.98,181.32L516.31,182.66L519.31,185.45L523.04,185.76L522.56,186.61L528.02,188.1L529.04,189.62L525.27,188.39L523.97,189.7L525.79,191.16L521.83,192.95L523.26,191.35L521.66,189.15L509.62,184.88L506.91,181.76L503.37,180.97L500.01,182.21L500.42,181.47L498.6,181.33L497.61,179.66L498.96,179.35L498.73,178.03Z M521.41,192.33L520.25,195.21L513.14,193.22L513.95,192.52L521.41,192.33Z M506.11,188.28L505.51,190.82L503.04,191.33L501.85,187.53L504.62,186.98L506.11,188.28Z M507.85,184.02L506.95,184.18L507.85,184.02Z"/>
    <path data-country="Japón" d="M831.09,202.26L830.24,204.07L828.42,204.67L828.74,203.52L828.23,204.42L826.98,204.01L828.3,201.75L827.31,201.09L827.63,201.92L825.97,202.11L825.82,201.24L826.68,201.66L825.55,200.78L829.35,199.79L832.22,201.49L831.09,202.26Z M839.17,200.02L837.8,201.01L835.45,200.79L834.67,201.88L833.12,200.66L832.03,200.82L837.17,199.1L839.06,199.33L839.17,200.02Z M835.79,198.99L832.92,199.15L832.11,200.11L829.11,199.88L829.19,199.03L834.91,197.03L842.85,196.92L844.66,193.99L846.24,193.71L844.96,194.48L846.22,195.03L851.75,192.63L853.46,190.18L852.96,188.18L854.25,186.97L856.34,187.7L855.75,186.47L857.23,186.67L858.82,190.25L857.4,192.39L855.91,192.56L854.84,195.86L855.68,196.82L854.34,197.75L852.69,198.12L853.61,197.08L852.71,196.94L850.23,198.73L850.14,197.84L848.62,198.73L845.38,198.76L846.24,198.51L844.88,197.92L844.05,198.59L845.06,199.29L842.03,200.68L840.16,199.94L841.1,198.57L835.79,198.99Z M868.71,182.99L863.7,184.02L861.98,185.74L858.18,184.48L854.67,184.52L854.11,185.12L856.53,185.98L853.89,186.72L852.71,185.03L854.72,183.73L854.29,183.11L857.13,183.12L858.45,178.84L863.28,181.59L865.97,181.97L867.58,181.14L867.36,183.1L868.71,182.99Z M811.54,214.76L811.04,215.13L811.54,214.76Z M822.23,211.35L820.4,212.45L822.23,211.35Z M825.89,208.74L824.39,209.07L825.89,208.74Z M829.47,204.93L828.99,205.74L829.47,204.93Z M827.09,202.15L826.65,202.73L827.09,202.15Z M825.48,200.72L824.91,201.1L825.48,200.72Z M840.01,198.71L839.28,199.41L840.01,198.71Z M825.21,198.69L824.61,199.14L825.21,198.69Z M849.22,192.74L848.59,193.21L849.22,192.74Z"/>
    <path data-country="Marruecos" d="M456.49,210.0L456.55,210.84L449.62,211.21L446.85,214.38L442.96,216.12L440.67,219.41L434.63,219.53L437.49,215.99L440.28,214.57L441.42,212.28L443.84,211.42L445.46,209.58L449.37,208.95L452.67,207.41L454.25,206.08L453.74,204.02L455.31,202.1L461.81,199.67L464.25,196.69L465.6,196.47L468.33,197.79L472.08,197.29L474.07,197.9L477.25,202.23L476.77,202.9L470.24,203.62L470.28,205.14L465.23,207.05L459.59,207.28L456.89,208.34L456.49,210.0Z"/>
    <path data-country="México" d="M220.96,212.63L218.96,217.77L224.39,223.53L228.09,224.37L233.59,223.6L236.04,223.94L239.47,219.99L244.99,219.24L247.88,219.26L248.69,219.91L246.02,222.13L246.9,222.26L245.75,224.29L245.24,223.3L243.01,224.74L237.36,224.87L237.35,225.67L236.15,225.69L238.83,227.34L235.36,227.4L234.06,229.57L227.06,226.86L223.37,227.94L219.27,227.51L200.02,222.61L198.14,221.04L199.35,220.78L198.55,220.5L199.51,219.5L198.05,217.85L191.99,214.07L189.02,213.3L189.77,212.88L188.24,213.13L189.1,212.13L180.89,207.94L178.05,204.21L173.25,203.09L174.24,205.99L182.51,211.5L185.04,215.26L188.09,216.32L186.59,217.29L181.1,214.47L180.86,212.65L178.28,211.08L176.97,211.46L173.27,209.87L176.12,210.0L175.82,208.65L171.47,206.68L167.67,202.17L174.07,201.87L183.98,204.14L196.19,203.44L204.3,207.84L207.14,206.46L209.59,206.64L214.63,210.11L215.72,211.93L220.96,212.63Z M181.06,214.71L181.0,213.71L181.06,214.71Z M172.81,208.93L172.72,209.42L172.81,208.93Z M180.6,208.25L179.78,208.08L180.63,207.49L180.6,208.25Z M178.3,207.78L177.14,207.02L178.3,207.78Z M248.67,220.76L248.01,221.25L248.67,220.76Z"/>
    <path data-country="Nigeria" d="M489.59,233.64L491.0,231.11L494.72,230.53L498.5,231.79L500.86,231.29L505.57,232.07L508.47,231.25L513.26,231.7L516.29,230.78L519.12,232.97L510.32,241.01L507.05,240.24L503.62,241.86L502.75,243.45L498.86,243.38L498.59,243.92L497.91,243.28L498.32,243.94L496.3,244.06L494.6,243.26L494.11,241.78L489.12,241.07L490.25,240.8L487.21,241.14L487.38,237.37L490.23,235.19L489.59,233.64Z"/>
    <path data-country="Panamá" d="M259.8,236.64L260.69,237.44L263.19,237.75L269.41,236.64L272.37,237.29L274.23,238.94L272.22,239.92L270.84,238.77L271.65,238.28L272.7,238.67L269.19,237.26L265.41,238.54L266.62,239.61L264.37,239.97L263.86,238.98L262.87,239.31L260.84,238.37L258.94,238.8L258.82,236.81L259.8,236.64Z"/>
    <path data-country="Paraguay" d="M312.93,281.69L315.32,277.84L322.48,277.31L324.89,278.11L325.37,281.45L331.04,281.77L332.21,284.28L335.35,284.43L333.89,288.42L329.6,289.89L323.72,289.46L326.47,286.75L325.99,286.16L317.32,284.06L312.93,281.69Z"/>
    <path data-country="Países Bajos" d="M499.19,162.31L498.16,165.25L495.82,165.57L495.99,167.94L493.41,166.33L489.2,166.21L491.42,166.4L490.3,165.57L492.65,162.95L499.19,162.31Z M488.93,166.56L491.26,166.57L488.93,166.56Z M490.76,165.86L489.83,165.85L490.76,165.86Z"/>
    <path data-country="Perú" d="M294.64,274.7L292.28,275.92L277.52,270.57L269.37,261.45L266.65,259.38L263.65,258.4L264.38,257.86L263.12,256.22L264.51,255.2L265.92,254.75L265.38,256.16L267.58,256.17L269.16,256.97L271.06,254.71L278.47,252.14L279.39,251.34L278.3,250.15L280.47,250.24L285.51,253.37L290.69,253.05L293.2,253.77L291.38,255.26L293.36,256.0L291.61,255.72L285.55,257.14L284.94,259.01L282.62,260.51L285.4,262.53L284.76,263.13L287.17,263.3L287.48,263.97L291.93,263.16L291.62,265.39L294.46,265.31L296.84,267.5L294.85,271.98L296.44,272.99L294.64,274.7Z"/>
    <path data-country="Polonia" d="M530.22,170.63L527.22,168.9L524.43,169.37L523.55,168.17L519.49,167.7L519.05,163.85L517.66,163.22L519.02,160.89L517.8,160.76L528.41,158.54L530.36,159.71L542.53,160.17L543.79,163.47L541.78,164.5L543.03,164.97L544.29,168.4L540.44,170.5L540.95,171.72L530.22,170.63Z"/>
    <path data-country="Portugal" d="M461.05,191.4L460.25,194.33L456.01,194.58L456.15,192.01L457.05,192.12L455.33,191.69L456.63,190.91L454.67,191.43L457.14,187.91L456.99,185.51L462.37,185.68L463.45,186.41L461.49,187.43L461.28,189.84L459.85,189.87L461.05,191.4Z M435.23,201.92L433.99,201.71L435.23,201.92Z M412.81,193.1L411.04,193.12L412.81,193.1Z M405.04,192.07L403.87,191.93L405.04,192.07Z M405.62,191.79L404.49,191.53L405.62,191.79Z M407.95,191.64L406.96,191.52L407.95,191.64Z"/>
    <path data-country="Qatar" d="M615.49,214.51L616.67,212.33L617.63,214.09L616.91,214.78L615.49,214.51Z"/>
    <path data-country="Senegal" d="M447.3,229.25L449.66,232.53L447.04,232.78L443.39,232.25L435.39,232.74L438.96,232.02L435.32,232.4L435.44,231.56L443.15,231.17L439.8,230.62L435.84,230.95L436.36,230.12L435.27,230.59L433.24,229.27L436.55,226.74L440.07,226.48L444.04,227.26L447.3,229.25Z"/>
    <path data-country="Serbia" d="M533.98,177.66L537.32,179.58L537.06,180.27L540.71,180.68L539.6,182.18L541.29,183.39L539.8,185.0L537.53,185.16L538.04,184.35L535.52,183.23L534.25,184.05L531.14,182.81L532.32,181.74L530.98,181.14L531.67,180.13L530.79,179.59L531.75,179.46L530.28,178.17L533.98,177.66Z"/>
    <path data-country="Suecia" d="M535.0,115.73L543.1,119.84L542.48,121.54L544.01,123.98L543.1,125.68L544.43,127.37L538.04,127.7L539.21,128.3L536.74,128.96L537.56,129.89L536.1,130.67L537.62,131.9L535.13,134.01L528.52,137.14L527.18,136.48L528.17,137.69L526.22,138.01L527.07,138.78L525.48,140.7L525.83,143.26L530.87,145.89L528.02,146.83L529.72,147.04L527.71,148.31L527.09,147.48L523.14,148.92L525.17,149.3L523.77,149.34L524.8,149.74L524.55,151.25L523.79,150.87L524.5,151.97L522.27,155.48L519.27,155.28L517.82,157.2L514.22,157.22L514.81,156.45L513.2,154.94L514.49,154.33L511.74,152.17L511.69,149.72L509.92,149.68L509.62,148.06L511.11,148.15L511.13,146.28L513.61,144.03L512.68,142.37L514.37,141.37L512.43,140.28L511.98,135.57L514.01,133.37L517.73,132.81L516.38,131.48L518.7,129.07L518.77,126.34L523.73,123.16L523.15,121.5L527.79,119.76L528.46,117.65L533.36,118.3L533.61,115.78L535.0,115.73Z M525.67,152.36L523.81,155.15L525.67,152.36Z M530.77,150.94L528.37,153.38L528.34,151.77L530.77,150.94Z M511.49,149.99L510.42,150.25L511.49,149.99Z"/>
    <path data-country="Suiza" d="M507.88,176.14L506.98,177.42L504.7,176.91L504.01,178.24L502.4,176.97L500.88,178.05L498.85,178.1L497.64,176.97L495.89,177.62L498.6,174.86L502.82,174.22L507.88,176.14Z"/>
    <path data-country="Turquía" d="M595.84,187.27L596.44,189.09L599.49,189.94L597.37,190.42L599.38,194.37L594.08,193.96L584.64,195.2L577.71,194.91L576.37,196.65L576.05,194.74L567.48,196.3L561.83,194.8L561.14,195.95L559.13,196.13L555.87,194.82L553.08,195.2L555.54,194.55L552.7,194.68L553.64,194.14L552.03,193.45L552.64,192.89L549.95,192.37L550.44,191.66L552.44,192.07L551.25,191.71L551.83,190.06L549.52,190.2L551.29,188.56L557.47,188.62L559.84,187.95L558.01,187.81L557.79,187.03L563.28,187.29L568.87,185.57L573.4,185.44L577.05,186.99L582.22,187.61L593.76,186.38L595.84,187.27Z M554.71,185.66L557.31,187.45L553.4,187.48L549.75,189.19L551.54,188.19L549.48,188.09L551.02,186.8L550.22,186.0L554.71,185.66Z M549.37,188.99L548.44,189.06L549.37,188.99Z"/>
    <path data-country="Ucrania" d="M564.7,164.93L570.14,164.35L571.77,165.66L571.16,166.84L573.54,166.93L574.96,168.81L579.77,168.64L581.33,169.79L587.02,170.48L585.82,171.67L586.81,171.99L585.68,172.58L586.65,173.24L586.02,174.15L583.55,174.12L581.71,175.79L573.33,177.73L573.84,176.85L573.27,178.44L564.8,177.31L564.02,176.7L567.05,176.57L565.39,176.62L564.64,175.33L565.07,176.57L559.04,178.23L559.22,179.42L556.21,179.37L555.2,178.94L557.19,176.97L560.35,177.03L557.66,173.86L553.55,172.79L546.39,174.41L539.02,172.96L540.98,171.69L540.44,170.5L544.29,168.4L542.98,166.0L548.71,165.32L561.44,166.87L562.45,165.02L564.7,164.93Z M567.97,177.8L566.99,177.76L567.97,177.8Z M565.17,177.47L564.01,177.13L565.17,177.47Z"/>
    <path data-country="Uruguay" d="M326.39,294.02L328.45,293.88L330.64,295.46L331.76,295.08L338.35,298.12L336.63,300.92L333.5,301.9L330.25,301.85L324.78,300.51L324.79,296.78L326.39,294.02Z"/>
  </g>
</svg>