<?xml version="1.0" encoding="utf-8"?>
<!-- Generator: Adobe Illustrator 19.0.0, SVG Export Plug-In . SVG Version: 6.00 Build 0)  -->
<svg version="1.1" id="Capa_1" xmlns="http://www.w3.org/2000/svg" xmlns:xlink="http://www.w3.org/1999/xlink" x="0px" y="0px"
	 viewBox="0 0 612 792" style="enable-background:new 0 0 612 792;" xml:space="preserve">
<style type="text/css">
	.st0{fill:none;}
</style>
<g>
	<path d="M379.4,124.1c-5.9,8-11.4,15.8-17.1,23.3c-4.7,6.2-4.9,6.4-11.6,2.9c-16.7-8.6-33.3-17.6-50-26.4c-1-0.5-1.9-1-2.9-1.5
		c-2.2,4.7-1.5,8.1,2.4,10.3c14.9,8.1,29.9,16.1,45,23.8c8.1,4.1,16.6,7.5,25.6,11.5c-2.6,3.7-5.1,7.3-7.7,10.9
		c-18.7,26.5-37.7,52.9-56.1,79.6c-18.4,26.5-34.3,54.5-49.6,82.9c-12.7,23.5-25.6,46.9-38.4,70.4c-15.7,28.8-31.4,57.7-47.1,86.5
		c-6.3,11.5-8.7,24.1-11.6,36.6c-0.5,2.1-0.1,4.5,0.3,6.7c1.1,6-3,9.6-6.1,13.5c-12.9,16.5-26,32.9-39,49.4c-0.4,0.6-0.6,1.3-0.9,2
		c-0.4-0.3-0.8-0.6-1.1-1c3.2-5.9,6.4-11.7,9.6-17.6c13.5-24.9,27-49.8,40.7-74.7c1.9-3.5,1.3-5.9-1.3-8.6
		c-22.8-23.7-41.2-50.4-55.4-80.1C90.1,389.3,80,352,73.6,313.5c-8.1-49.1-9.9-98.4-5.9-147.9c0.2-2.9,0.7-5.7,0.9-8.6
		c0.2-3.3,1.8-4.8,5.1-5.2c10.5-1.2,21.1-2.4,31.6-4c49.9-7.4,96.8-23.4,140.2-49.1C258.6,91,271,82,283.6,73.4
		c2.4-1.7,4.2-2.3,6.9-0.3c19.7,15.2,40.7,28.1,63.1,38.8C361.9,115.9,370.2,119.8,379.4,124.1z M162.5,332.8c2-0.1,3.6-0.2,5.1-0.2
		c23.5,0,47,0,70.5,0.1c3,0,4.6-1,6-3.7c6.4-12.3,13.2-24.4,19.8-36.6c0.9-1.7,1.7-3.5,2.7-5.6c-1.4-0.2-2.3-0.4-3.1-0.4
		c-6.7,0-13.5,0.1-20.2,0.1c-28.2,0-56.5,0-84.7,0.1c-3.5,0-5.4-0.7-5.7-4.8c-1.3-18.2-2.8-36.3-4.3-54.5c-0.2-2.9,1.5-3.5,3.8-4
		c33.3-7.3,65.5-17.9,96.5-32.2c11.8-5.4,23.1-11.8,34.7-17.6c2.4-1.2,3.2-3,3.2-5.7c-0.1-16,0.1-32,0.1-48c0-0.8-0.2-1.7-0.3-2.5
		c-0.6,0-1-0.2-1.3,0c-1.1,0.6-2.2,1.2-3.2,1.8c-21.1,14.2-43.6,25.7-67,35.6c-35.1,14.8-71.3,25.1-109.2,29.6
		c-2.2,0.3-2.9,1.1-3,3.3c-1.4,30.4-1.3,60.8,2.7,90.9c3,22.9,7.1,45.7,12.2,68.2c9.3,40.8,26,78.3,51.6,111.7
		c2.8,3.6,3.4,3.7,5.5-0.4c6.6-12.6,13.1-25.3,19.8-37.9c1.4-2.6,1.4-4.7-0.2-7.2c-14.1-22.7-23.5-47.4-30.3-73.1
		C163.3,337.6,163,335.4,162.5,332.8z"/>
	<path d="M411.6,299.5c1.3,0.2,2,0.4,2.7,0.4c13.6,0,27.2-0.1,40.9,0c2.8,0,3.2-1.4,3.6-3.6c4.6-30.6,6.2-61.4,5.5-92.3
		c-0.1-5.4-0.5-10.7-0.4-16.1c0-2.7-1-3.4-3.7-3.9c-15.9-3-31.8-6.3-47.7-9.5c-0.6-0.1-1.1-0.5-1.9-0.9c1.9-3.8,3.8-7.4,5.6-11.1
		c3-6,6-12.1,8.9-18.2c1.1-2.3,2.3-3,5-2.5c19.8,3.3,39.7,6.5,59.5,9.6c7.8,1.2,8,1,8.7,8.8c2.2,26.6,2.7,53.1,1.7,79.8
		c-1,30.2-4.5,60-10.2,89.6c-6.7,34.8-16.9,68.6-33.1,100.4c-9.6,18.9-21,36.6-33.9,53.4c-3,3.9-5.9,5.6-11.1,4
		c-10-3.2-20.2-5.7-30.3-8.5c-0.3-0.1-0.6-0.4-1.2-0.8c20.6-20.7,36.4-44.7,48.9-70.9c2.4-5.2,4.3-10.6,6.4-16c0.2-0.4,0-1,0-1.8
		c-1.4-0.1-2.6-0.2-3.8-0.2c-14,0-28,0.1-42-0.1c-3.7-0.1-5.7,1.3-7.2,4.6c-7.1,15.2-15.6,29.8-26.8,42.3
		c-9.7,10.9-20.1,21.3-31.3,30.5c-13.8,11.3-28.7,21.3-43.2,31.6c-1,0.7-3.4,0.4-4.5-0.4c-10.5-7.2-20.8-14.7-31.2-22.1
		c-4.1-2.9-4.1-3-7.1,0.8c-6.1,7.7-12.2,15.5-18.3,23.2c-2.8,3.5-3.3,3.4-7-0.1c3-4.1,6-8.4,9.2-12.5
		c29.5-38.1,59.3-76.1,84.5-117.3c14.6-23.8,27.9-48.5,41.1-73.2c13.6-25.4,26.4-51.3,39.5-77c1.2-2.3,2.4-2.9,5-2.1
		c7,2.1,14.2,4.1,21.3,5.8c3,0.7,4.2,2.2,4,5.2c-1.6,20-3.1,40.1-4.6,60.1C412.6,291.9,412.1,295.5,411.6,299.5z"/>
	<path d="M365.5,496.9c1.1,9.9,2.2,18.9,3,27.9c1.2,13.4,1,13.3-9.8,21.4c-24.2,18.2-49.6,34.5-75.6,49.9c-2.3,1.4-4.3,1.6-6.7,0.3
		c-22.4-13.2-44.5-26.8-65.3-42.4c-6.7-5-13.3-10.1-20.1-15.1c-2.7-2-3-4.1-1-6.6c5.5-7.1,10.9-14.3,16.4-21.4
		c1.9-2.6,3.8-1,5.5,0.2c7.5,5.2,14.8,10.7,22.3,15.8c14,9.5,28.1,18.7,42.1,28.1c2.4,1.6,4.3,1.5,6.8,0c24.7-15.7,49.3-31.5,72-50
		C358.1,502.4,361.5,499.9,365.5,496.9z"/>
	<path d="M458.6,51.9c-30,59.2-59.6,117.8-89.3,176.4c-0.1,0-0.3,0-0.4,0c0.4-2.4,0.7-4.9,1.3-7.3c3.9-14.9,5.3-29.9,2.8-45.3
		c-1.1-6.4,0.4-11.7,4.7-17c8.1-10,15.2-20.7,23-31c18.8-24.9,37.7-49.8,56.6-74.6C457.6,52.8,457.9,52.6,458.6,51.9z"/>
	<path d="M554.1,696.5c7.1,3.8,11.7,8.7,13.2,16.4c2.2,11.5-3.9,21.9-15.2,24.6c-4.2,1-8.6,1.6-12.9,1.7
		c-10.2,0.2-20.5,0.1-30.7,0.1c-4.9,0-4.9,0-4.9-5c0-22.1,0-44.2,0.2-66.3c0.1-10.3,0.2-10.3,10.4-10.3c8.9,0,17.7-0.2,26.6,0.1
		c8.8,0.2,16.4,3.2,21.1,11.3c5.1,8.7,2.7,20.2-5.4,26.1C555.7,695.4,555.1,695.8,554.1,696.5z M529.6,732
		C529.6,732,529.6,732,529.6,732c5.1,0,10.2,0.2,15.3-0.1c9.7-0.5,15.2-7,14.6-16.6c-0.5-8.6-6.7-14.2-16.5-14.4
		c-9.5-0.2-19,0-28.4-0.2c-2.2,0-2.9,0.7-2.9,2.8c0,8.5,0,17-0.1,25.4c0,2.2,0.7,3.1,3,3.1C519.6,731.9,524.6,732,529.6,732z
		 M511.6,693.5c11.2,0,21.9,0.8,32.5-0.2c8.8-0.8,12.5-6.7,12-15.6c-0.4-7-5.7-12.6-13.1-12.9c-9.6-0.4-19.2-0.2-28.8-0.1
		c-0.8,0-2.4,1.2-2.4,1.9C511.6,675.5,511.6,684.5,511.6,693.5z"/>
	<path d="M58.8,700.9c-9.1,0-17.9,0-26.8,0c-3.5,0-7-0.1-10.5-0.2c-2,0-3,0.7-2.9,2.9c0.1,8.5,0.1,17,0,25.5c0,2.8,1.5,2.9,3.6,2.9
		c13.1,0,26.2,0.1,39.4,0c2.6,0,4.3,0.2,4.2,3.5c-0.1,2.9-1.1,3.7-4,3.7c-15.6-0.1-31.2-0.1-46.8,0.1c-3.3,0-4.3-1-4.3-4.3
		c0.1-24.7,0.1-49.5,0-74.2c0-2.4,0.8-3.3,3.2-3.3c15.9,0,31.7,0,47.6-0.2c3,0,3,1.6,3.1,3.8c0.1,2.4-0.5,3.6-3.3,3.6
		c-12.6-0.2-25.2-0.1-37.9-0.2c-4.8,0-4.8,0-4.7,4.8c0.1,6.5,0.1,13,0.1,19.5c0,5,0,5,4.8,5c10,0,20,0,30,0.2
		C57.9,694.2,59,695.7,58.8,700.9z"/>
	<path d="M463.3,685.1c0,9.2,0.7,18.5-0.2,27.7c-1.2,12-6.9,21.6-19,25.4c-12.6,4-24.5,2.7-34.5-6.8c-7.2-6.8-9.2-15.9-9.3-25.3
		c-0.2-14.9-0.1-29.7-0.2-44.6c0-2.7,0.5-4.1,3.7-4c2.9,0.1,4.3,0.7,4.2,4c-0.1,14.7-0.1,29.5,0,44.2c0.1,8.1,2.2,15.6,8.3,21.4
		c12.5,11.8,34.3,5.6,38.3-11.1c0.9-4,1.3-8.1,1.4-12.2c0.2-14.1,0.1-28.2,0-42.3c0-2.7,0.5-4.1,3.7-4c3.1,0.1,4.2,0.9,4.1,4.1
		c-0.2,7.9-0.1,15.7-0.1,23.6C463.6,685.1,463.5,685.1,463.3,685.1z"/>
	<path d="M227.6,699.4c0.4,12.2,5.2,22,15.6,28.6c12,7.6,26.4,6.4,36.9-3.4c2.6-2.4,3.7-1.4,5.7,0.4c2.5,2.3,0.8,3.6-0.7,5.1
		c-10.7,10.7-29.5,13.2-43.6,5.8c-27.5-14.3-28.3-52.5-8.4-69.8c14.1-12.3,37.5-12.8,51.6-0.9c2.6,2.2,2.9,3.7,0.3,6.2
		c-2.1,2-3.3,1.2-5-0.3c-10.4-8.7-22.1-9.4-34.1-4.3C233.5,672.3,226.8,685,227.6,699.4z"/>
	<path d="M321.5,739c0-27.1,0-54,0-80.9c0.7-0.1,1.2-0.3,1.7-0.3c5.9-0.4,5.9-0.4,5.9,5.4c0,21.4,0.1,42.7,0.1,64.1
		c0,4.8,0,4.8,5.1,4.8c11.1,0,22.2,0.1,33.3,0c3,0,5.1,0.9,4.5,4.2c-0.2,1-1.6,2.6-2.5,2.6C353.6,739,337.8,739,321.5,739z"/>
	<path d="M100.4,698.4c0-12.1,0.1-24.2,0-36.3c0-2.9,0.3-4.6,4-4.6c3.9,0,3.8,2.1,3.8,4.7c0,21.6,0.1,43.2,0.2,64.8c0,4.9,0,5,5,5
		c11.5,0,23,0.1,34.5,0c3,0,3.8,1,3.8,3.9c0,3-1.2,3.4-3.8,3.4c-14.4-0.1-28.7-0.1-43.1,0c-3.6,0-4.4-1.3-4.4-4.6
		c0.1-12.1,0.1-24.2,0.1-36.3C100.3,698.4,100.4,698.4,100.4,698.4z"/>
	<path d="M378.8,499.1C393,514,407.2,529,422,544.6c-7.7,1-14.5,1.8-21.3,2.6c-0.9,0.1-1.7,0.2-2.6,0.3c-11.2,1.4-8.7,2.2-11.2-7.8
		c-3-12-5.4-24.1-8.1-36.2c-0.3-1.3-0.5-2.6-0.7-4C378.3,499.4,378.6,499.2,378.8,499.1z"/>
	<path d="M467.5,512.9c-15.6-3.4-30.2-6.7-45.5-10.1c1.2-0.5,2-0.9,2.8-1.1c11.5-3.4,23-6.6,34.5-10.1c2.9-0.9,4.3-0.6,4.8,2.8
		C464.9,500.2,466.2,506,467.5,512.9z"/>
	<path d="M433.2,523.7c11.5,6.3,23,12.6,35.2,19.3c-5.7,3.6-10.5,6.8-15.5,9.8c-0.5,0.3-2.1-0.2-2.5-0.7c-6.2-9-12.4-18-18.5-27.1
		C432.3,524.6,432.8,524.1,433.2,523.7z"/>
	<line class="st0" x1="286.8" y1="125.3" x2="296.6" y2="127"/>
	<line class="st0" x1="310" y1="153.3" x2="319.8" y2="155"/>
	<line class="st0" x1="286.8" y1="125.3" x2="296.6" y2="127"/>
</g>
</svg>
